<svg width="275" height="78" viewBox="0 0 275 78" fill="none" xmlns="http://www.w3.org/2000/svg">
<mask id="path-1-outside-1_110_136" maskUnits="userSpaceOnUse" x="0" y="0" width="275" height="78" fill="black">
<rect fill="white" width="275" height="78"/>
<path d="M33.576 59H3.176V53.816L5.288 53.624C6.52533 53.496 7.144 52.8987 7.144 51.832V22.072L3.496 21.88V16.44H32.808V27.064L26.28 27.512V24.952C26.28 24.2267 26.1733 23.7147 25.96 23.416C25.7467 23.1173 25.2347 22.968 24.424 22.968H14.952V33.912H29.736V40.44H14.952V52.408H25.256C26.024 52.408 26.5147 52.2587 26.728 51.96C26.9413 51.6187 27.048 51.0853 27.048 50.36V47.16L33.576 47.608V59ZM38.301 59V53.816L40.413 53.624C41.6503 53.496 42.269 52.8987 42.269 51.832V22.072L38.621 21.88V16.44H56.157C62.429 16.44 67.3143 18.104 70.813 21.432C74.3543 24.76 76.125 29.688 76.125 36.216C76.125 40.2693 75.5917 43.8107 74.525 46.84C73.4583 49.8267 72.0077 52.1733 70.173 53.88C66.5037 57.2933 61.9383 59 56.477 59H38.301ZM50.077 22.648V52.856H56.605C60.2743 52.856 63.133 51.5333 65.181 48.888C67.229 46.2427 68.253 42.4027 68.253 37.368C68.253 27.5547 64.093 22.648 55.773 22.648H50.077ZM84.7035 51.512V22.072L81.0555 21.88V16.44H96.5435V21.624L94.4315 21.816C93.1942 21.944 92.5755 22.6267 92.5755 23.864V53.368L96.2235 53.56V59H80.7355V53.816L82.8475 53.624C83.4875 53.5387 83.9568 53.368 84.2555 53.112C84.5542 52.8133 84.7035 52.28 84.7035 51.512ZM126.217 23.224C125.747 22.4133 123.998 22.008 120.969 22.008C117.001 22.008 113.993 23.352 111.945 26.04C109.897 28.728 108.873 32.6107 108.873 37.688C108.873 48.2267 112.819 53.496 120.713 53.496C120.841 53.496 121.395 53.496 122.377 53.496C123.401 53.496 124.361 53.368 125.257 53.112C126.153 52.8133 126.686 52.5147 126.857 52.216C127.027 51.9173 127.113 51.448 127.113 50.808V45.688L133.641 46.136V57.208C130.313 58.9573 126.11 59.832 121.033 59.832L120.201 63.032C121.993 63.16 123.422 63.672 124.489 64.568C125.598 65.464 126.153 66.8293 126.153 68.664C126.153 70.5413 125.363 71.9707 123.785 72.952C122.249 73.976 120.435 74.488 118.345 74.488C116.254 74.488 114.334 74.104 112.585 73.336L113.609 70.008C115.273 70.5627 116.702 70.84 117.897 70.84C119.945 70.84 120.969 70.0293 120.969 68.408C120.969 66.8293 119.091 66.04 115.337 66.04L117.385 59.576C112.009 58.9787 107.913 56.8667 105.097 53.24C102.281 49.5707 100.873 44.472 100.873 37.944C100.873 33.9333 101.449 30.4347 102.601 27.448C103.753 24.4613 105.31 22.136 107.273 20.472C111.113 17.272 115.678 15.672 120.969 15.672C125.235 15.672 129.246 16.5467 133.001 18.296V29.176L126.473 29.624V24.632C126.473 23.992 126.387 23.5227 126.217 23.224ZM141.165 51.832L151.469 22.008L147.437 21.624V16.44H162.093L175.149 53.368H175.213L178.861 53.56V59H162.349V53.816L164.781 53.624C165.506 53.5387 165.997 53.368 166.253 53.112C166.509 52.856 166.53 52.3867 166.317 51.704L164.973 47.736H149.997L148.077 53.368L151.917 53.56V59H137.133V53.816L139.245 53.624C140.141 53.5387 140.781 52.9413 141.165 51.832ZM157.485 23.608L151.533 41.848H163.437L157.677 23.608H157.485ZM148.589 12.408L145.517 10.168C147.053 6.79733 149.229 5.112 152.045 5.112C153.069 5.112 154.562 5.41066 156.525 6.008C158.487 6.60533 159.917 6.904 160.813 6.904C161.751 6.904 162.626 6.22133 163.437 4.856L166.893 6.712C165.485 10.424 163.287 12.28 160.301 12.28C159.405 12.28 158.018 12.0027 156.141 11.448C154.263 10.8507 152.941 10.552 152.173 10.552C151.405 10.552 150.786 10.68 150.317 10.936C149.847 11.1493 149.271 11.64 148.589 12.408ZM201.268 15.672C206.345 15.672 210.59 17.464 214.004 21.048C217.417 24.632 219.124 30.1147 219.124 37.496C219.124 44.8347 217.417 50.4027 214.004 54.2C210.633 57.9547 206.046 59.832 200.244 59.832C194.484 59.832 189.961 57.9547 186.676 54.2C183.39 50.4453 181.748 44.984 181.748 37.816C181.748 33.8907 182.324 30.456 183.476 27.512C184.628 24.5253 186.142 22.2213 188.02 20.6C191.817 17.3147 196.233 15.672 201.268 15.672ZM189.748 37.496C189.748 48.0773 193.417 53.368 200.756 53.368C204.681 53.368 207.433 51.7467 209.012 48.504C210.462 45.6453 211.188 42.1467 211.188 38.008C211.188 34.296 210.548 30.8827 209.268 27.768C208.542 26.0613 207.433 24.7173 205.94 23.736C204.489 22.7547 202.59 22.264 200.244 22.264C197.897 22.264 195.87 23.032 194.164 24.568C192.5 26.104 191.348 27.96 190.708 30.136C190.068 32.312 189.748 34.7653 189.748 37.496ZM240.516 51.512V22.072L236.868 21.88V16.44H252.356V21.624L250.244 21.816C249.007 21.944 248.388 22.6267 248.388 23.864V53.368L252.036 53.56V59H236.548V53.816L238.66 53.624C239.3 53.5387 239.769 53.368 240.068 53.112C240.367 52.8133 240.516 52.28 240.516 51.512ZM260.141 51.512V22.072L256.493 21.88V16.44H271.981V21.624L269.869 21.816C268.632 21.944 268.013 22.6267 268.013 23.864V53.368L271.661 53.56V59H256.173V53.816L258.285 53.624C258.925 53.5387 259.394 53.368 259.693 53.112C259.992 52.8133 260.141 52.28 260.141 51.512Z"/>
</mask>
<path d="M33.576 59H3.176V53.816L5.288 53.624C6.52533 53.496 7.144 52.8987 7.144 51.832V22.072L3.496 21.88V16.44H32.808V27.064L26.28 27.512V24.952C26.28 24.2267 26.1733 23.7147 25.96 23.416C25.7467 23.1173 25.2347 22.968 24.424 22.968H14.952V33.912H29.736V40.44H14.952V52.408H25.256C26.024 52.408 26.5147 52.2587 26.728 51.96C26.9413 51.6187 27.048 51.0853 27.048 50.36V47.16L33.576 47.608V59ZM38.301 59V53.816L40.413 53.624C41.6503 53.496 42.269 52.8987 42.269 51.832V22.072L38.621 21.88V16.44H56.157C62.429 16.44 67.3143 18.104 70.813 21.432C74.3543 24.76 76.125 29.688 76.125 36.216C76.125 40.2693 75.5917 43.8107 74.525 46.84C73.4583 49.8267 72.0077 52.1733 70.173 53.88C66.5037 57.2933 61.9383 59 56.477 59H38.301ZM50.077 22.648V52.856H56.605C60.2743 52.856 63.133 51.5333 65.181 48.888C67.229 46.2427 68.253 42.4027 68.253 37.368C68.253 27.5547 64.093 22.648 55.773 22.648H50.077ZM84.7035 51.512V22.072L81.0555 21.88V16.44H96.5435V21.624L94.4315 21.816C93.1942 21.944 92.5755 22.6267 92.5755 23.864V53.368L96.2235 53.56V59H80.7355V53.816L82.8475 53.624C83.4875 53.5387 83.9568 53.368 84.2555 53.112C84.5542 52.8133 84.7035 52.28 84.7035 51.512ZM126.217 23.224C125.747 22.4133 123.998 22.008 120.969 22.008C117.001 22.008 113.993 23.352 111.945 26.04C109.897 28.728 108.873 32.6107 108.873 37.688C108.873 48.2267 112.819 53.496 120.713 53.496C120.841 53.496 121.395 53.496 122.377 53.496C123.401 53.496 124.361 53.368 125.257 53.112C126.153 52.8133 126.686 52.5147 126.857 52.216C127.027 51.9173 127.113 51.448 127.113 50.808V45.688L133.641 46.136V57.208C130.313 58.9573 126.11 59.832 121.033 59.832L120.201 63.032C121.993 63.16 123.422 63.672 124.489 64.568C125.598 65.464 126.153 66.8293 126.153 68.664C126.153 70.5413 125.363 71.9707 123.785 72.952C122.249 73.976 120.435 74.488 118.345 74.488C116.254 74.488 114.334 74.104 112.585 73.336L113.609 70.008C115.273 70.5627 116.702 70.84 117.897 70.84C119.945 70.84 120.969 70.0293 120.969 68.408C120.969 66.8293 119.091 66.04 115.337 66.04L117.385 59.576C112.009 58.9787 107.913 56.8667 105.097 53.24C102.281 49.5707 100.873 44.472 100.873 37.944C100.873 33.9333 101.449 30.4347 102.601 27.448C103.753 24.4613 105.31 22.136 107.273 20.472C111.113 17.272 115.678 15.672 120.969 15.672C125.235 15.672 129.246 16.5467 133.001 18.296V29.176L126.473 29.624V24.632C126.473 23.992 126.387 23.5227 126.217 23.224ZM141.165 51.832L151.469 22.008L147.437 21.624V16.44H162.093L175.149 53.368H175.213L178.861 53.56V59H162.349V53.816L164.781 53.624C165.506 53.5387 165.997 53.368 166.253 53.112C166.509 52.856 166.53 52.3867 166.317 51.704L164.973 47.736H149.997L148.077 53.368L151.917 53.56V59H137.133V53.816L139.245 53.624C140.141 53.5387 140.781 52.9413 141.165 51.832ZM157.485 23.608L151.533 41.848H163.437L157.677 23.608H157.485ZM148.589 12.408L145.517 10.168C147.053 6.79733 149.229 5.112 152.045 5.112C153.069 5.112 154.562 5.41066 156.525 6.008C158.487 6.60533 159.917 6.904 160.813 6.904C161.751 6.904 162.626 6.22133 163.437 4.856L166.893 6.712C165.485 10.424 163.287 12.28 160.301 12.28C159.405 12.28 158.018 12.0027 156.141 11.448C154.263 10.8507 152.941 10.552 152.173 10.552C151.405 10.552 150.786 10.68 150.317 10.936C149.847 11.1493 149.271 11.64 148.589 12.408ZM201.268 15.672C206.345 15.672 210.59 17.464 214.004 21.048C217.417 24.632 219.124 30.1147 219.124 37.496C219.124 44.8347 217.417 50.4027 214.004 54.2C210.633 57.9547 206.046 59.832 200.244 59.832C194.484 59.832 189.961 57.9547 186.676 54.2C183.39 50.4453 181.748 44.984 181.748 37.816C181.748 33.8907 182.324 30.456 183.476 27.512C184.628 24.5253 186.142 22.2213 188.02 20.6C191.817 17.3147 196.233 15.672 201.268 15.672ZM189.748 37.496C189.748 48.0773 193.417 53.368 200.756 53.368C204.681 53.368 207.433 51.7467 209.012 48.504C210.462 45.6453 211.188 42.1467 211.188 38.008C211.188 34.296 210.548 30.8827 209.268 27.768C208.542 26.0613 207.433 24.7173 205.94 23.736C204.489 22.7547 202.59 22.264 200.244 22.264C197.897 22.264 195.87 23.032 194.164 24.568C192.5 26.104 191.348 27.96 190.708 30.136C190.068 32.312 189.748 34.7653 189.748 37.496ZM240.516 51.512V22.072L236.868 21.88V16.44H252.356V21.624L250.244 21.816C249.007 21.944 248.388 22.6267 248.388 23.864V53.368L252.036 53.56V59H236.548V53.816L238.66 53.624C239.3 53.5387 239.769 53.368 240.068 53.112C240.367 52.8133 240.516 52.28 240.516 51.512ZM260.141 51.512V22.072L256.493 21.88V16.44H271.981V21.624L269.869 21.816C268.632 21.944 268.013 22.6267 268.013 23.864V53.368L271.661 53.56V59H256.173V53.816L258.285 53.624C258.925 53.5387 259.394 53.368 259.693 53.112C259.992 52.8133 260.141 52.28 260.141 51.512Z" fill="white"/>
<path d="M33.576 59V62H36.576V59H33.576ZM3.176 59H0.176V62H3.176V59ZM3.176 53.816L2.90439 50.8283L0.176 51.0764L0.176 53.816H3.176ZM5.288 53.624L5.55961 56.6117L5.57816 56.61L5.5967 56.6081L5.288 53.624ZM7.144 22.072H10.144V19.2257L7.30168 19.0761L7.144 22.072ZM3.496 21.88H0.496V24.7263L3.33832 24.8759L3.496 21.88ZM3.496 16.44V13.44H0.496V16.44H3.496ZM32.808 16.44H35.808V13.44H32.808V16.44ZM32.808 27.064L33.0134 30.057L35.808 29.8652V27.064H32.808ZM26.28 27.512H23.28V30.7249L26.4854 30.505L26.28 27.512ZM25.96 23.416L28.4012 21.6723L28.4012 21.6723L25.96 23.416ZM14.952 22.968V19.968H11.952V22.968H14.952ZM14.952 33.912H11.952V36.912H14.952V33.912ZM29.736 33.912H32.736V30.912H29.736V33.912ZM29.736 40.44V43.44H32.736V40.44H29.736ZM14.952 40.44V37.44H11.952V40.44H14.952ZM14.952 52.408H11.952V55.408H14.952V52.408ZM26.728 51.96L29.1692 53.7037L29.223 53.6284L29.272 53.55L26.728 51.96ZM27.048 47.16L27.2534 44.167L24.048 43.9471V47.16H27.048ZM33.576 47.608H36.576V44.8068L33.7814 44.615L33.576 47.608ZM33.576 56H3.176V62H33.576V56ZM6.176 59V53.816H0.176V59H6.176ZM3.44761 56.8037L5.55961 56.6117L5.01639 50.6363L2.90439 50.8283L3.44761 56.8037ZM5.5967 56.6081C6.594 56.5049 7.79781 56.1709 8.76378 55.2382C9.79324 54.2442 10.144 52.9709 10.144 51.832H4.144C4.144 51.8118 4.14675 51.685 4.21606 51.4985C4.28996 51.2998 4.41744 51.0944 4.59622 50.9218C4.94353 50.5865 5.21933 50.6151 4.9793 50.6399L5.5967 56.6081ZM10.144 51.832V22.072H4.144V51.832H10.144ZM7.30168 19.0761L3.65368 18.8841L3.33832 24.8759L6.98632 25.0679L7.30168 19.0761ZM6.496 21.88V16.44H0.496V21.88H6.496ZM3.496 19.44H32.808V13.44H3.496V19.44ZM29.808 16.44V27.064H35.808V16.44H29.808ZM32.6026 24.071L26.0746 24.519L26.4854 30.505L33.0134 30.057L32.6026 24.071ZM29.28 27.512V24.952H23.28V27.512H29.28ZM29.28 24.952C29.28 24.1123 29.1914 22.7786 28.4012 21.6723L23.5188 25.1597C23.4064 25.0023 23.3431 24.8666 23.3095 24.7815C23.2759 24.6964 23.2645 24.643 23.2631 24.6359C23.2614 24.6277 23.2662 24.6487 23.2711 24.7057C23.2759 24.7619 23.28 24.8428 23.28 24.952H29.28ZM28.4012 21.6723C27.7608 20.7757 26.8747 20.3805 26.256 20.2C25.6246 20.0158 24.9823 19.968 24.424 19.968V25.968C24.6764 25.968 24.6954 25.9948 24.576 25.96C24.4693 25.9289 23.9459 25.7576 23.5188 25.1597L28.4012 21.6723ZM24.424 19.968H14.952V25.968H24.424V19.968ZM11.952 22.968V33.912H17.952V22.968H11.952ZM14.952 36.912H29.736V30.912H14.952V36.912ZM26.736 33.912V40.44H32.736V33.912H26.736ZM29.736 37.44H14.952V43.44H29.736V37.44ZM11.952 40.44V52.408H17.952V40.44H11.952ZM14.952 55.408H25.256V49.408H14.952V55.408ZM25.256 55.408C25.8043 55.408 26.4418 55.3583 27.0735 55.166C27.7051 54.9738 28.5517 54.5683 29.1692 53.7037L24.2868 50.2163C24.691 49.6504 25.1856 49.4689 25.3265 49.426C25.4675 49.3831 25.4758 49.408 25.256 49.408V55.408ZM29.272 53.55C29.938 52.4844 30.048 51.2585 30.048 50.36H24.048C24.048 50.4689 24.044 50.5528 24.0387 50.6147C24.0334 50.677 24.0276 50.7089 24.0263 50.7157C24.0248 50.7229 24.03 50.6935 24.0506 50.6373C24.0712 50.5809 24.1115 50.486 24.184 50.37L29.272 53.55ZM30.048 50.36V47.16H24.048V50.36H30.048ZM26.8426 50.153L33.3706 50.601L33.7814 44.615L27.2534 44.167L26.8426 50.153ZM30.576 47.608V59H36.576V47.608H30.576ZM38.301 59H35.301V62H38.301V59ZM38.301 53.816L38.0294 50.8283L35.301 51.0764V53.816H38.301ZM40.413 53.624L40.6846 56.6117L40.7032 56.61L40.7217 56.6081L40.413 53.624ZM42.269 22.072H45.269V19.2257L42.4267 19.0761L42.269 22.072ZM38.621 21.88H35.621V24.7263L38.4633 24.8759L38.621 21.88ZM38.621 16.44V13.44H35.621V16.44H38.621ZM70.813 21.432L68.7454 23.6057L68.7519 23.6119L68.7586 23.6181L70.813 21.432ZM74.525 46.84L77.3503 47.849L77.3547 47.8364L74.525 46.84ZM70.173 53.88L68.1297 51.6834L68.1297 51.6834L70.173 53.88ZM50.077 22.648V19.648H47.077V22.648H50.077ZM50.077 52.856H47.077V55.856H50.077V52.856ZM41.301 59V53.816H35.301V59H41.301ZM38.5726 56.8037L40.6846 56.6117L40.1414 50.6363L38.0294 50.8283L38.5726 56.8037ZM40.7217 56.6081C41.719 56.5049 42.9228 56.1709 43.8888 55.2382C44.9182 54.2442 45.269 52.9709 45.269 51.832H39.269C39.269 51.8118 39.2718 51.685 39.3411 51.4985C39.415 51.2998 39.5424 51.0944 39.7212 50.9218C40.0685 50.5865 40.3443 50.6151 40.1043 50.6399L40.7217 56.6081ZM45.269 51.832V22.072H39.269V51.832H45.269ZM42.4267 19.0761L38.7787 18.8841L38.4633 24.8759L42.1113 25.0679L42.4267 19.0761ZM41.621 21.88V16.44H35.621V21.88H41.621ZM38.621 19.44H56.157V13.44H38.621V19.44ZM56.157 19.44C61.8974 19.44 65.9558 20.9522 68.7454 23.6057L72.8806 19.2583C68.6728 15.2558 62.9606 13.44 56.157 13.44V19.44ZM68.7586 23.6181C71.5104 26.2042 73.125 30.2202 73.125 36.216H79.125C79.125 29.1558 77.1983 23.3158 72.8675 19.2459L68.7586 23.6181ZM73.125 36.216C73.125 40.015 72.6241 43.2058 71.6953 45.8436L77.3547 47.8364C78.5592 44.4155 79.125 40.5237 79.125 36.216H73.125ZM71.6998 45.831C70.7529 48.4822 69.5312 50.3797 68.1297 51.6834L72.2163 56.0766C74.4842 53.9669 76.1638 51.1711 77.3502 47.849L71.6998 45.831ZM68.1297 51.6834C65.0675 54.532 61.2543 56 56.477 56V62C62.6223 62 67.9399 60.0547 72.2163 56.0766L68.1297 51.6834ZM56.477 56H38.301V62H56.477V56ZM47.077 22.648V52.856H53.077V22.648H47.077ZM50.077 55.856H56.605V49.856H50.077V55.856ZM56.605 55.856C61.0993 55.856 64.8767 54.1817 67.5532 50.7245L62.8088 47.0515C61.3893 48.885 59.4494 49.856 56.605 49.856V55.856ZM67.5532 50.7245C70.1682 47.3468 71.253 42.7476 71.253 37.368H65.253C65.253 42.0577 64.2898 45.1385 62.8088 47.0515L67.5532 50.7245ZM71.253 37.368C71.253 32.1088 70.1487 27.6049 67.4213 24.3879C64.6134 21.0761 60.537 19.648 55.773 19.648V25.648C59.329 25.648 61.4926 26.6732 62.8447 28.2681C64.2773 29.9577 65.253 32.8139 65.253 37.368H71.253ZM55.773 19.648H50.077V25.648H55.773V19.648ZM84.7035 22.072H87.7035V19.2257L84.8612 19.0761L84.7035 22.072ZM81.0555 21.88H78.0555V24.7263L80.8978 24.8759L81.0555 21.88ZM81.0555 16.44V13.44H78.0555V16.44H81.0555ZM96.5435 16.44H99.5435V13.44H96.5435V16.44ZM96.5435 21.624L96.8151 24.6117L99.5435 24.3636V21.624H96.5435ZM94.4315 21.816L94.1599 18.8283L94.1413 18.83L94.1228 18.8319L94.4315 21.816ZM92.5755 53.368H89.5755V56.2143L92.4178 56.3639L92.5755 53.368ZM96.2235 53.56H99.2235V50.7137L96.3812 50.5641L96.2235 53.56ZM96.2235 59V62H99.2235V59H96.2235ZM80.7355 59H77.7355V62H80.7355V59ZM80.7355 53.816L80.4639 50.8283L77.7355 51.0764V53.816H80.7355ZM82.8475 53.624L83.1191 56.6117L83.1817 56.606L83.244 56.5977L82.8475 53.624ZM84.2555 53.112L86.2079 55.3898L86.2954 55.3148L86.3768 55.2333L84.2555 53.112ZM87.7035 51.512V22.072H81.7035V51.512H87.7035ZM84.8612 19.0761L81.2132 18.8841L80.8978 24.8759L84.5458 25.0679L84.8612 19.0761ZM84.0555 21.88V16.44H78.0555V21.88H84.0555ZM81.0555 19.44H96.5435V13.44H81.0555V19.44ZM93.5435 16.44V21.624H99.5435V16.44H93.5435ZM96.2719 18.6363L94.1599 18.8283L94.7031 24.8037L96.8151 24.6117L96.2719 18.6363ZM94.1228 18.8319C93.0291 18.9451 91.7743 19.3526 90.8165 20.4094C89.8567 21.4686 89.5755 22.76 89.5755 23.864H95.5755C95.5755 23.7306 95.6036 24.0621 95.2625 24.4386C94.9234 24.8127 94.5965 24.8149 94.7402 24.8001L94.1228 18.8319ZM89.5755 23.864V53.368H95.5755V23.864H89.5755ZM92.4178 56.3639L96.0658 56.5559L96.3812 50.5641L92.7332 50.3721L92.4178 56.3639ZM93.2235 53.56V59H99.2235V53.56H93.2235ZM96.2235 56H80.7355V62H96.2235V56ZM83.7355 59V53.816H77.7355V59H83.7355ZM81.0071 56.8037L83.1191 56.6117L82.5759 50.6363L80.4639 50.8283L81.0071 56.8037ZM83.244 56.5977C84.1263 56.48 85.269 56.1945 86.2079 55.3898L82.3031 50.8342C82.4905 50.6737 82.6373 50.6188 82.6543 50.6126C82.6721 50.6061 82.6153 50.6284 82.451 50.6503L83.244 56.5977ZM86.3768 55.2333C87.5508 54.0594 87.7035 52.4839 87.7035 51.512H81.7035C81.7035 51.7197 81.6813 51.7552 81.7026 51.6791C81.7249 51.5995 81.8231 51.3018 82.1342 50.9907L86.3768 55.2333ZM126.217 23.224L128.821 21.7356L128.817 21.7282L128.813 21.7209L126.217 23.224ZM111.945 26.04L109.558 24.2219L109.558 24.2219L111.945 26.04ZM125.257 53.112L126.081 55.9966L126.143 55.9787L126.205 55.958L125.257 53.112ZM126.857 52.216L124.252 50.7276L124.252 50.7276L126.857 52.216ZM127.113 45.688L127.318 42.695L124.113 42.4751V45.688H127.113ZM133.641 46.136H136.641V43.3348L133.846 43.143L133.641 46.136ZM133.641 57.208L135.036 59.8635L136.641 59.0203V57.208H133.641ZM121.033 59.832V56.832H118.713L118.129 59.0771L121.033 59.832ZM120.201 63.032L117.297 62.2771L116.39 65.7674L119.987 66.0244L120.201 63.032ZM124.489 64.568L122.559 66.8651L122.581 66.8837L122.603 66.9018L124.489 64.568ZM123.785 72.952L122.201 70.4041L122.16 70.4294L122.12 70.4558L123.785 72.952ZM112.585 73.336L109.717 72.4537L108.931 75.0085L111.379 76.0829L112.585 73.336ZM113.609 70.008L114.557 67.162L111.644 66.1909L110.741 69.1257L113.609 70.008ZM115.337 66.04L112.477 65.1339L111.239 69.04H115.337V66.04ZM117.385 59.576L120.244 60.4821L121.348 56.998L117.716 56.5943L117.385 59.576ZM105.097 53.24L102.717 55.0665L102.722 55.0732L102.727 55.0799L105.097 53.24ZM102.601 27.448L99.8015 26.3684L99.8015 26.3684L102.601 27.448ZM107.273 20.472L105.352 18.1673L105.342 18.1755L105.332 18.1837L107.273 20.472ZM133.001 18.296H136.001V16.3841L134.267 15.5767L133.001 18.296ZM133.001 29.176L133.206 32.169L136.001 31.9772V29.176H133.001ZM126.473 29.624H123.473V32.8369L126.678 32.617L126.473 29.624ZM128.813 21.7209C127.913 20.1674 126.249 19.6257 125.23 19.3894C124.033 19.1121 122.578 19.008 120.969 19.008V25.008C122.388 25.008 123.323 25.1065 123.875 25.2346C124.148 25.2977 124.223 25.3448 124.183 25.3228C124.142 25.3006 123.858 25.1371 123.62 24.7271L128.813 21.7209ZM120.969 19.008C116.248 19.008 112.277 20.654 109.558 24.2219L114.331 27.8581C115.708 26.05 117.753 25.008 120.969 25.008V19.008ZM109.558 24.2219C106.956 27.6367 105.873 32.2679 105.873 37.688H111.873C111.873 32.9534 112.837 29.8193 114.331 27.8581L109.558 24.2219ZM105.873 37.688C105.873 43.2452 106.898 47.9598 109.431 51.3424C112.087 54.888 116.032 56.496 120.713 56.496V50.496C117.499 50.496 115.525 49.4693 114.234 47.7456C112.821 45.8588 111.873 42.6695 111.873 37.688H105.873ZM120.713 56.496C120.713 56.496 120.713 56.496 120.713 56.496C120.714 56.496 120.714 56.496 120.714 56.496C120.714 56.496 120.715 56.496 120.715 56.496C120.715 56.496 120.715 56.496 120.716 56.496C120.716 56.496 120.716 56.496 120.716 56.496C120.717 56.496 120.717 56.496 120.717 56.496C120.717 56.496 120.718 56.496 120.718 56.496C120.718 56.496 120.719 56.496 120.719 56.496C120.719 56.496 120.719 56.496 120.72 56.496C120.72 56.496 120.72 56.496 120.72 56.496C120.721 56.496 120.721 56.496 120.721 56.496C120.722 56.496 120.722 56.496 120.722 56.496C120.722 56.496 120.723 56.496 120.723 56.496C120.723 56.496 120.724 56.496 120.724 56.496C120.724 56.496 120.725 56.496 120.725 56.496C120.725 56.496 120.725 56.496 120.726 56.496C120.726 56.496 120.726 56.496 120.727 56.496C120.727 56.496 120.727 56.496 120.728 56.496C120.728 56.496 120.728 56.496 120.729 56.496C120.729 56.496 120.729 56.496 120.729 56.496C120.73 56.496 120.73 56.496 120.73 56.496C120.731 56.496 120.731 56.496 120.731 56.496C120.732 56.496 120.732 56.496 120.732 56.496C120.733 56.496 120.733 56.496 120.733 56.496C120.734 56.496 120.734 56.496 120.734 56.496C120.735 56.496 120.735 56.496 120.735 56.496C120.736 56.496 120.736 56.496 120.736 56.496C120.737 56.496 120.737 56.496 120.737 56.496C120.738 56.496 120.738 56.496 120.738 56.496C120.739 56.496 120.739 56.496 120.739 56.496C120.74 56.496 120.74 56.496 120.74 56.496C120.741 56.496 120.741 56.496 120.742 56.496C120.742 56.496 120.742 56.496 120.743 56.496C120.743 56.496 120.743 56.496 120.744 56.496C120.744 56.496 120.744 56.496 120.745 56.496C120.745 56.496 120.745 56.496 120.746 56.496C120.746 56.496 120.747 56.496 120.747 56.496C120.747 56.496 120.748 56.496 120.748 56.496C120.748 56.496 120.749 56.496 120.749 56.496C120.75 56.496 120.75 56.496 120.75 56.496C120.751 56.496 120.751 56.496 120.751 56.496C120.752 56.496 120.752 56.496 120.753 56.496C120.753 56.496 120.753 56.496 120.754 56.496C120.754 56.496 120.755 56.496 120.755 56.496C120.755 56.496 120.756 56.496 120.756 56.496C120.757 56.496 120.757 56.496 120.757 56.496C120.758 56.496 120.758 56.496 120.759 56.496C120.759 56.496 120.759 56.496 120.76 56.496C120.76 56.496 120.761 56.496 120.761 56.496C120.761 56.496 120.762 56.496 120.762 56.496C120.763 56.496 120.763 56.496 120.763 56.496C120.764 56.496 120.764 56.496 120.765 56.496C120.765 56.496 120.766 56.496 120.766 56.496C120.766 56.496 120.767 56.496 120.767 56.496C120.768 56.496 120.768 56.496 120.769 56.496C120.769 56.496 120.769 56.496 120.77 56.496C120.77 56.496 120.771 56.496 120.771 56.496C120.772 56.496 120.772 56.496 120.772 56.496C120.773 56.496 120.773 56.496 120.774 56.496C120.774 56.496 120.775 56.496 120.775 56.496C120.776 56.496 120.776 56.496 120.776 56.496C120.777 56.496 120.777 56.496 120.778 56.496C120.778 56.496 120.779 56.496 120.779 56.496C120.78 56.496 120.78 56.496 120.781 56.496C120.781 56.496 120.781 56.496 120.782 56.496C120.782 56.496 120.783 56.496 120.783 56.496C120.784 56.496 120.784 56.496 120.785 56.496C120.785 56.496 120.786 56.496 120.786 56.496C120.787 56.496 120.787 56.496 120.787 56.496C120.788 56.496 120.788 56.496 120.789 56.496C120.789 56.496 120.79 56.496 120.79 56.496C120.791 56.496 120.791 56.496 120.792 56.496C120.792 56.496 120.793 56.496 120.793 56.496C120.794 56.496 120.794 56.496 120.795 56.496C120.795 56.496 120.796 56.496 120.796 56.496C120.797 56.496 120.797 56.496 120.798 56.496C120.798 56.496 120.799 56.496 120.799 56.496C120.8 56.496 120.8 56.496 120.801 56.496C120.801 56.496 120.802 56.496 120.802 56.496C120.803 56.496 120.803 56.496 120.804 56.496C120.804 56.496 120.805 56.496 120.805 56.496C120.806 56.496 120.806 56.496 120.807 56.496C120.807 56.496 120.808 56.496 120.808 56.496C120.809 56.496 120.809 56.496 120.81 56.496C120.81 56.496 120.811 56.496 120.812 56.496C120.812 56.496 120.813 56.496 120.813 56.496C120.814 56.496 120.814 56.496 120.815 56.496C120.815 56.496 120.816 56.496 120.816 56.496C120.817 56.496 120.817 56.496 120.818 56.496C120.818 56.496 120.819 56.496 120.82 56.496C120.82 56.496 120.821 56.496 120.821 56.496C120.822 56.496 120.822 56.496 120.823 56.496C120.823 56.496 120.824 56.496 120.824 56.496C120.825 56.496 120.826 56.496 120.826 56.496C120.827 56.496 120.827 56.496 120.828 56.496C120.828 56.496 120.829 56.496 120.83 56.496C120.83 56.496 120.831 56.496 120.831 56.496C120.832 56.496 120.832 56.496 120.833 56.496C120.833 56.496 120.834 56.496 120.835 56.496C120.835 56.496 120.836 56.496 120.836 56.496C120.837 56.496 120.837 56.496 120.838 56.496C120.839 56.496 120.839 56.496 120.84 56.496C120.84 56.496 120.841 56.496 120.842 56.496C120.842 56.496 120.843 56.496 120.843 56.496C120.844 56.496 120.844 56.496 120.845 56.496C120.846 56.496 120.846 56.496 120.847 56.496C120.847 56.496 120.848 56.496 120.849 56.496C120.849 56.496 120.85 56.496 120.85 56.496C120.851 56.496 120.852 56.496 120.852 56.496C120.853 56.496 120.853 56.496 120.854 56.496C120.855 56.496 120.855 56.496 120.856 56.496C120.857 56.496 120.857 56.496 120.858 56.496C120.858 56.496 120.859 56.496 120.86 56.496C120.86 56.496 120.861 56.496 120.861 56.496C120.862 56.496 120.863 56.496 120.863 56.496C120.864 56.496 120.865 56.496 120.865 56.496C120.866 56.496 120.866 56.496 120.867 56.496C120.868 56.496 120.868 56.496 120.869 56.496C120.87 56.496 120.87 56.496 120.871 56.496C120.872 56.496 120.872 56.496 120.873 56.496C120.873 56.496 120.874 56.496 120.875 56.496C120.875 56.496 120.876 56.496 120.877 56.496C120.877 56.496 120.878 56.496 120.879 56.496C120.879 56.496 120.88 56.496 120.881 56.496C120.881 56.496 120.882 56.496 120.883 56.496C120.883 56.496 120.884 56.496 120.885 56.496C120.885 56.496 120.886 56.496 120.887 56.496C120.887 56.496 120.888 56.496 120.889 56.496C120.889 56.496 120.89 56.496 120.891 56.496C120.891 56.496 120.892 56.496 120.893 56.496C120.893 56.496 120.894 56.496 120.895 56.496C120.895 56.496 120.896 56.496 120.897 56.496C120.897 56.496 120.898 56.496 120.899 56.496C120.899 56.496 120.9 56.496 120.901 56.496C120.901 56.496 120.902 56.496 120.903 56.496C120.903 56.496 120.904 56.496 120.905 56.496C120.906 56.496 120.906 56.496 120.907 56.496C120.908 56.496 120.908 56.496 120.909 56.496C120.91 56.496 120.91 56.496 120.911 56.496C120.912 56.496 120.912 56.496 120.913 56.496C120.914 56.496 120.915 56.496 120.915 56.496C120.916 56.496 120.917 56.496 120.917 56.496C120.918 56.496 120.919 56.496 120.92 56.496C120.92 56.496 120.921 56.496 120.922 56.496C120.922 56.496 120.923 56.496 120.924 56.496C120.925 56.496 120.925 56.496 120.926 56.496C120.927 56.496 120.928 56.496 120.928 56.496C120.929 56.496 120.93 56.496 120.93 56.496C120.931 56.496 120.932 56.496 120.933 56.496C120.933 56.496 120.934 56.496 120.935 56.496C120.936 56.496 120.936 56.496 120.937 56.496C120.938 56.496 120.939 56.496 120.939 56.496C120.94 56.496 120.941 56.496 120.942 56.496C120.942 56.496 120.943 56.496 120.944 56.496C120.945 56.496 120.945 56.496 120.946 56.496C120.947 56.496 120.948 56.496 120.948 56.496C120.949 56.496 120.95 56.496 120.951 56.496C120.951 56.496 120.952 56.496 120.953 56.496C120.954 56.496 120.954 56.496 120.955 56.496C120.956 56.496 120.957 56.496 120.958 56.496C120.958 56.496 120.959 56.496 120.96 56.496C120.961 56.496 120.961 56.496 120.962 56.496C120.963 56.496 120.964 56.496 120.964 56.496C120.965 56.496 120.966 56.496 120.967 56.496C120.968 56.496 120.968 56.496 120.969 56.496C120.97 56.496 120.971 56.496 120.972 56.496C120.972 56.496 120.973 56.496 120.974 56.496C120.975 56.496 120.976 56.496 120.976 56.496C120.977 56.496 120.978 56.496 120.979 56.496C120.98 56.496 120.98 56.496 120.981 56.496C120.982 56.496 120.983 56.496 120.984 56.496C120.984 56.496 120.985 56.496 120.986 56.496C120.987 56.496 120.988 56.496 120.988 56.496C120.989 56.496 120.99 56.496 120.991 56.496C120.992 56.496 120.992 56.496 120.993 56.496C120.994 56.496 120.995 56.496 120.996 56.496C120.997 56.496 120.997 56.496 120.998 56.496C120.999 56.496 121 56.496 121.001 56.496C121.002 56.496 121.002 56.496 121.003 56.496C121.004 56.496 121.005 56.496 121.006 56.496C121.007 56.496 121.007 56.496 121.008 56.496C121.009 56.496 121.01 56.496 121.011 56.496C121.012 56.496 121.012 56.496 121.013 56.496C121.014 56.496 121.015 56.496 121.016 56.496C121.017 56.496 121.018 56.496 121.018 56.496C121.019 56.496 121.02 56.496 121.021 56.496C121.022 56.496 121.023 56.496 121.023 56.496C121.024 56.496 121.025 56.496 121.026 56.496C121.027 56.496 121.028 56.496 121.029 56.496C121.03 56.496 121.03 56.496 121.031 56.496C121.032 56.496 121.033 56.496 121.034 56.496C121.035 56.496 121.036 56.496 121.037 56.496C121.037 56.496 121.038 56.496 121.039 56.496C121.04 56.496 121.041 56.496 121.042 56.496C121.043 56.496 121.044 56.496 121.044 56.496C121.045 56.496 121.046 56.496 121.047 56.496C121.048 56.496 121.049 56.496 121.05 56.496C121.051 56.496 121.052 56.496 121.052 56.496C121.053 56.496 121.054 56.496 121.055 56.496C121.056 56.496 121.057 56.496 121.058 56.496C121.059 56.496 121.06 56.496 121.061 56.496C121.061 56.496 121.062 56.496 121.063 56.496C121.064 56.496 121.065 56.496 121.066 56.496C121.067 56.496 121.068 56.496 121.069 56.496C121.07 56.496 121.071 56.496 121.071 56.496C121.072 56.496 121.073 56.496 121.074 56.496C121.075 56.496 121.076 56.496 121.077 56.496C121.078 56.496 121.079 56.496 121.08 56.496C121.081 56.496 121.082 56.496 121.083 56.496C121.083 56.496 121.084 56.496 121.085 56.496C121.086 56.496 121.087 56.496 121.088 56.496C121.089 56.496 121.09 56.496 121.091 56.496C121.092 56.496 121.093 56.496 121.094 56.496C121.095 56.496 121.096 56.496 121.097 56.496C121.098 56.496 121.099 56.496 121.099 56.496C121.1 56.496 121.101 56.496 121.102 56.496C121.103 56.496 121.104 56.496 121.105 56.496C121.106 56.496 121.107 56.496 121.108 56.496C121.109 56.496 121.11 56.496 121.111 56.496C121.112 56.496 121.113 56.496 121.114 56.496C121.115 56.496 121.116 56.496 121.117 56.496C121.118 56.496 121.119 56.496 121.12 56.496C121.121 56.496 121.122 56.496 121.123 56.496C121.124 56.496 121.125 56.496 121.126 56.496C121.126 56.496 121.127 56.496 121.128 56.496C121.129 56.496 121.13 56.496 121.131 56.496C121.132 56.496 121.133 56.496 121.134 56.496C121.135 56.496 121.136 56.496 121.137 56.496C121.138 56.496 121.139 56.496 121.14 56.496C121.141 56.496 121.142 56.496 121.143 56.496C121.144 56.496 121.145 56.496 121.146 56.496C121.147 56.496 121.148 56.496 121.149 56.496C121.15 56.496 121.151 56.496 121.152 56.496C121.153 56.496 121.154 56.496 121.155 56.496C121.156 56.496 121.157 56.496 121.158 56.496C121.159 56.496 121.16 56.496 121.161 56.496C121.162 56.496 121.163 56.496 121.165 56.496C121.166 56.496 121.167 56.496 121.168 56.496C121.169 56.496 121.17 56.496 121.171 56.496C121.172 56.496 121.173 56.496 121.174 56.496C121.175 56.496 121.176 56.496 121.177 56.496C121.178 56.496 121.179 56.496 121.18 56.496C121.181 56.496 121.182 56.496 121.183 56.496C121.184 56.496 121.185 56.496 121.186 56.496C121.187 56.496 121.188 56.496 121.189 56.496C121.19 56.496 121.191 56.496 121.192 56.496C121.194 56.496 121.195 56.496 121.196 56.496C121.197 56.496 121.198 56.496 121.199 56.496C121.2 56.496 121.201 56.496 121.202 56.496C121.203 56.496 121.204 56.496 121.205 56.496C121.206 56.496 121.207 56.496 121.208 56.496C121.209 56.496 121.211 56.496 121.212 56.496C121.213 56.496 121.214 56.496 121.215 56.496C121.216 56.496 121.217 56.496 121.218 56.496C121.219 56.496 121.22 56.496 121.221 56.496C121.222 56.496 121.223 56.496 121.225 56.496C121.226 56.496 121.227 56.496 121.228 56.496C121.229 56.496 121.23 56.496 121.231 56.496C121.232 56.496 121.233 56.496 121.234 56.496C121.235 56.496 121.236 56.496 121.238 56.496C121.239 56.496 121.24 56.496 121.241 56.496C121.242 56.496 121.243 56.496 121.244 56.496C121.245 56.496 121.246 56.496 121.247 56.496C121.249 56.496 121.25 56.496 121.251 56.496C121.252 56.496 121.253 56.496 121.254 56.496C121.255 56.496 121.256 56.496 121.257 56.496C121.259 56.496 121.26 56.496 121.261 56.496C121.262 56.496 121.263 56.496 121.264 56.496C121.265 56.496 121.266 56.496 121.268 56.496C121.269 56.496 121.27 56.496 121.271 56.496C121.272 56.496 121.273 56.496 121.274 56.496C121.275 56.496 121.277 56.496 121.278 56.496C121.279 56.496 121.28 56.496 121.281 56.496C121.282 56.496 121.283 56.496 121.285 56.496C121.286 56.496 121.287 56.496 121.288 56.496C121.289 56.496 121.29 56.496 121.291 56.496C121.293 56.496 121.294 56.496 121.295 56.496C121.296 56.496 121.297 56.496 121.298 56.496C121.3 56.496 121.301 56.496 121.302 56.496C121.303 56.496 121.304 56.496 121.305 56.496C121.306 56.496 121.308 56.496 121.309 56.496C121.31 56.496 121.311 56.496 121.312 56.496C121.313 56.496 121.315 56.496 121.316 56.496C121.317 56.496 121.318 56.496 121.319 56.496C121.321 56.496 121.322 56.496 121.323 56.496C121.324 56.496 121.325 56.496 121.326 56.496C121.328 56.496 121.329 56.496 121.33 56.496C121.331 56.496 121.332 56.496 121.334 56.496C121.335 56.496 121.336 56.496 121.337 56.496C121.338 56.496 121.339 56.496 121.341 56.496C121.342 56.496 121.343 56.496 121.344 56.496C121.345 56.496 121.347 56.496 121.348 56.496C121.349 56.496 121.35 56.496 121.351 56.496C121.353 56.496 121.354 56.496 121.355 56.496C121.356 56.496 121.357 56.496 121.359 56.496C121.36 56.496 121.361 56.496 121.362 56.496C121.364 56.496 121.365 56.496 121.366 56.496C121.367 56.496 121.368 56.496 121.37 56.496C121.371 56.496 121.372 56.496 121.373 56.496C121.375 56.496 121.376 56.496 121.377 56.496C121.378 56.496 121.379 56.496 121.381 56.496C121.382 56.496 121.383 56.496 121.384 56.496C121.386 56.496 121.387 56.496 121.388 56.496C121.389 56.496 121.391 56.496 121.392 56.496C121.393 56.496 121.394 56.496 121.395 56.496C121.397 56.496 121.398 56.496 121.399 56.496C121.4 56.496 121.402 56.496 121.403 56.496C121.404 56.496 121.405 56.496 121.407 56.496C121.408 56.496 121.409 56.496 121.41 56.496C121.412 56.496 121.413 56.496 121.414 56.496C121.415 56.496 121.417 56.496 121.418 56.496C121.419 56.496 121.421 56.496 121.422 56.496C121.423 56.496 121.424 56.496 121.426 56.496C121.427 56.496 121.428 56.496 121.429 56.496C121.431 56.496 121.432 56.496 121.433 56.496C121.435 56.496 121.436 56.496 121.437 56.496C121.438 56.496 121.44 56.496 121.441 56.496C121.442 56.496 121.443 56.496 121.445 56.496C121.446 56.496 121.447 56.496 121.449 56.496C121.45 56.496 121.451 56.496 121.453 56.496C121.454 56.496 121.455 56.496 121.456 56.496C121.458 56.496 121.459 56.496 121.46 56.496C121.462 56.496 121.463 56.496 121.464 56.496C121.465 56.496 121.467 56.496 121.468 56.496C121.469 56.496 121.471 56.496 121.472 56.496C121.473 56.496 121.475 56.496 121.476 56.496C121.477 56.496 121.479 56.496 121.48 56.496C121.481 56.496 121.482 56.496 121.484 56.496C121.485 56.496 121.486 56.496 121.488 56.496C121.489 56.496 121.49 56.496 121.492 56.496C121.493 56.496 121.494 56.496 121.496 56.496C121.497 56.496 121.498 56.496 121.5 56.496C121.501 56.496 121.502 56.496 121.504 56.496C121.505 56.496 121.506 56.496 121.508 56.496C121.509 56.496 121.51 56.496 121.512 56.496C121.513 56.496 121.514 56.496 121.516 56.496C121.517 56.496 121.518 56.496 121.52 56.496C121.521 56.496 121.522 56.496 121.524 56.496C121.525 56.496 121.527 56.496 121.528 56.496C121.529 56.496 121.531 56.496 121.532 56.496C121.533 56.496 121.535 56.496 121.536 56.496C121.537 56.496 121.539 56.496 121.54 56.496C121.541 56.496 121.543 56.496 121.544 56.496C121.546 56.496 121.547 56.496 121.548 56.496C121.55 56.496 121.551 56.496 121.552 56.496C121.554 56.496 121.555 56.496 121.557 56.496C121.558 56.496 121.559 56.496 121.561 56.496C121.562 56.496 121.563 56.496 121.565 56.496C121.566 56.496 121.568 56.496 121.569 56.496C121.57 56.496 121.572 56.496 121.573 56.496C121.575 56.496 121.576 56.496 121.577 56.496C121.579 56.496 121.58 56.496 121.582 56.496C121.583 56.496 121.584 56.496 121.586 56.496C121.587 56.496 121.588 56.496 121.59 56.496C121.591 56.496 121.593 56.496 121.594 56.496C121.596 56.496 121.597 56.496 121.598 56.496C121.6 56.496 121.601 56.496 121.603 56.496C121.604 56.496 121.605 56.496 121.607 56.496C121.608 56.496 121.61 56.496 121.611 56.496C121.612 56.496 121.614 56.496 121.615 56.496C121.617 56.496 121.618 56.496 121.62 56.496C121.621 56.496 121.622 56.496 121.624 56.496C121.625 56.496 121.627 56.496 121.628 56.496C121.63 56.496 121.631 56.496 121.632 56.496C121.634 56.496 121.635 56.496 121.637 56.496C121.638 56.496 121.64 56.496 121.641 56.496C121.643 56.496 121.644 56.496 121.645 56.496C121.647 56.496 121.648 56.496 121.65 56.496C121.651 56.496 121.653 56.496 121.654 56.496C121.656 56.496 121.657 56.496 121.658 56.496C121.66 56.496 121.661 56.496 121.663 56.496C121.664 56.496 121.666 56.496 121.667 56.496C121.669 56.496 121.67 56.496 121.672 56.496C121.673 56.496 121.675 56.496 121.676 56.496C121.677 56.496 121.679 56.496 121.68 56.496C121.682 56.496 121.683 56.496 121.685 56.496C121.686 56.496 121.688 56.496 121.689 56.496C121.691 56.496 121.692 56.496 121.694 56.496C121.695 56.496 121.697 56.496 121.698 56.496C121.7 56.496 121.701 56.496 121.703 56.496C121.704 56.496 121.706 56.496 121.707 56.496C121.709 56.496 121.71 56.496 121.712 56.496C121.713 56.496 121.715 56.496 121.716 56.496C121.718 56.496 121.719 56.496 121.721 56.496C121.722 56.496 121.724 56.496 121.725 56.496C121.727 56.496 121.728 56.496 121.73 56.496C121.731 56.496 121.733 56.496 121.734 56.496C121.736 56.496 121.737 56.496 121.739 56.496C121.74 56.496 121.742 56.496 121.743 56.496C121.745 56.496 121.746 56.496 121.748 56.496C121.749 56.496 121.751 56.496 121.752 56.496C121.754 56.496 121.755 56.496 121.757 56.496C121.758 56.496 121.76 56.496 121.761 56.496C121.763 56.496 121.764 56.496 121.766 56.496C121.768 56.496 121.769 56.496 121.771 56.496C121.772 56.496 121.774 56.496 121.775 56.496C121.777 56.496 121.778 56.496 121.78 56.496C121.781 56.496 121.783 56.496 121.784 56.496C121.786 56.496 121.788 56.496 121.789 56.496C121.791 56.496 121.792 56.496 121.794 56.496C121.795 56.496 121.797 56.496 121.798 56.496C121.8 56.496 121.802 56.496 121.803 56.496C121.805 56.496 121.806 56.496 121.808 56.496C121.809 56.496 121.811 56.496 121.812 56.496C121.814 56.496 121.816 56.496 121.817 56.496C121.819 56.496 121.82 56.496 121.822 56.496C121.823 56.496 121.825 56.496 121.827 56.496C121.828 56.496 121.83 56.496 121.831 56.496C121.833 56.496 121.834 56.496 121.836 56.496C121.838 56.496 121.839 56.496 121.841 56.496C121.842 56.496 121.844 56.496 121.846 56.496C121.847 56.496 121.849 56.496 121.85 56.496C121.852 56.496 121.854 56.496 121.855 56.496C121.857 56.496 121.858 56.496 121.86 56.496C121.861 56.496 121.863 56.496 121.865 56.496C121.866 56.496 121.868 56.496 121.87 56.496C121.871 56.496 121.873 56.496 121.874 56.496C121.876 56.496 121.878 56.496 121.879 56.496C121.881 56.496 121.882 56.496 121.884 56.496C121.886 56.496 121.887 56.496 121.889 56.496C121.89 56.496 121.892 56.496 121.894 56.496C121.895 56.496 121.897 56.496 121.899 56.496C121.9 56.496 121.902 56.496 121.903 56.496C121.905 56.496 121.907 56.496 121.908 56.496C121.91 56.496 121.912 56.496 121.913 56.496C121.915 56.496 121.916 56.496 121.918 56.496C121.92 56.496 121.921 56.496 121.923 56.496C121.925 56.496 121.926 56.496 121.928 56.496C121.93 56.496 121.931 56.496 121.933 56.496C121.935 56.496 121.936 56.496 121.938 56.496C121.939 56.496 121.941 56.496 121.943 56.496C121.944 56.496 121.946 56.496 121.948 56.496C121.949 56.496 121.951 56.496 121.953 56.496C121.954 56.496 121.956 56.496 121.958 56.496C121.959 56.496 121.961 56.496 121.963 56.496C121.964 56.496 121.966 56.496 121.968 56.496C121.969 56.496 121.971 56.496 121.973 56.496C121.974 56.496 121.976 56.496 121.978 56.496C121.979 56.496 121.981 56.496 121.983 56.496C121.984 56.496 121.986 56.496 121.988 56.496C121.989 56.496 121.991 56.496 121.993 56.496C121.995 56.496 121.996 56.496 121.998 56.496C122 56.496 122.001 56.496 122.003 56.496C122.005 56.496 122.006 56.496 122.008 56.496C122.01 56.496 122.011 56.496 122.013 56.496C122.015 56.496 122.017 56.496 122.018 56.496C122.02 56.496 122.022 56.496 122.023 56.496C122.025 56.496 122.027 56.496 122.029 56.496C122.03 56.496 122.032 56.496 122.034 56.496C122.035 56.496 122.037 56.496 122.039 56.496C122.04 56.496 122.042 56.496 122.044 56.496C122.046 56.496 122.047 56.496 122.049 56.496C122.051 56.496 122.053 56.496 122.054 56.496C122.056 56.496 122.058 56.496 122.059 56.496C122.061 56.496 122.063 56.496 122.065 56.496C122.066 56.496 122.068 56.496 122.07 56.496C122.072 56.496 122.073 56.496 122.075 56.496C122.077 56.496 122.078 56.496 122.08 56.496C122.082 56.496 122.084 56.496 122.085 56.496C122.087 56.496 122.089 56.496 122.091 56.496C122.092 56.496 122.094 56.496 122.096 56.496C122.098 56.496 122.099 56.496 122.101 56.496C122.103 56.496 122.105 56.496 122.106 56.496C122.108 56.496 122.11 56.496 122.112 56.496C122.114 56.496 122.115 56.496 122.117 56.496C122.119 56.496 122.121 56.496 122.122 56.496C122.124 56.496 122.126 56.496 122.128 56.496C122.129 56.496 122.131 56.496 122.133 56.496C122.135 56.496 122.137 56.496 122.138 56.496C122.14 56.496 122.142 56.496 122.144 56.496C122.145 56.496 122.147 56.496 122.149 56.496C122.151 56.496 122.153 56.496 122.154 56.496C122.156 56.496 122.158 56.496 122.16 56.496C122.161 56.496 122.163 56.496 122.165 56.496C122.167 56.496 122.169 56.496 122.17 56.496C122.172 56.496 122.174 56.496 122.176 56.496C122.178 56.496 122.179 56.496 122.181 56.496C122.183 56.496 122.185 56.496 122.187 56.496C122.188 56.496 122.19 56.496 122.192 56.496C122.194 56.496 122.196 56.496 122.198 56.496C122.199 56.496 122.201 56.496 122.203 56.496C122.205 56.496 122.207 56.496 122.208 56.496C122.21 56.496 122.212 56.496 122.214 56.496C122.216 56.496 122.218 56.496 122.219 56.496C122.221 56.496 122.223 56.496 122.225 56.496C122.227 56.496 122.228 56.496 122.23 56.496C122.232 56.496 122.234 56.496 122.236 56.496C122.238 56.496 122.239 56.496 122.241 56.496C122.243 56.496 122.245 56.496 122.247 56.496C122.249 56.496 122.251 56.496 122.252 56.496C122.254 56.496 122.256 56.496 122.258 56.496C122.26 56.496 122.262 56.496 122.263 56.496C122.265 56.496 122.267 56.496 122.269 56.496C122.271 56.496 122.273 56.496 122.275 56.496C122.276 56.496 122.278 56.496 122.28 56.496C122.282 56.496 122.284 56.496 122.286 56.496C122.288 56.496 122.289 56.496 122.291 56.496C122.293 56.496 122.295 56.496 122.297 56.496C122.299 56.496 122.301 56.496 122.303 56.496C122.304 56.496 122.306 56.496 122.308 56.496C122.31 56.496 122.312 56.496 122.314 56.496C122.316 56.496 122.318 56.496 122.319 56.496C122.321 56.496 122.323 56.496 122.325 56.496C122.327 56.496 122.329 56.496 122.331 56.496C122.333 56.496 122.335 56.496 122.336 56.496C122.338 56.496 122.34 56.496 122.342 56.496C122.344 56.496 122.346 56.496 122.348 56.496C122.35 56.496 122.352 56.496 122.354 56.496C122.355 56.496 122.357 56.496 122.359 56.496C122.361 56.496 122.363 56.496 122.365 56.496C122.367 56.496 122.369 56.496 122.371 56.496C122.373 56.496 122.375 56.496 122.377 56.496V50.496C122.375 50.496 122.373 50.496 122.371 50.496C122.369 50.496 122.367 50.496 122.365 50.496C122.363 50.496 122.361 50.496 122.359 50.496C122.357 50.496 122.355 50.496 122.354 50.496C122.352 50.496 122.35 50.496 122.348 50.496C122.346 50.496 122.344 50.496 122.342 50.496C122.34 50.496 122.338 50.496 122.336 50.496C122.335 50.496 122.333 50.496 122.331 50.496C122.329 50.496 122.327 50.496 122.325 50.496C122.323 50.496 122.321 50.496 122.319 50.496C122.318 50.496 122.316 50.496 122.314 50.496C122.312 50.496 122.31 50.496 122.308 50.496C122.306 50.496 122.304 50.496 122.303 50.496C122.301 50.496 122.299 50.496 122.297 50.496C122.295 50.496 122.293 50.496 122.291 50.496C122.289 50.496 122.288 50.496 122.286 50.496C122.284 50.496 122.282 50.496 122.28 50.496C122.278 50.496 122.276 50.496 122.275 50.496C122.273 50.496 122.271 50.496 122.269 50.496C122.267 50.496 122.265 50.496 122.263 50.496C122.262 50.496 122.26 50.496 122.258 50.496C122.256 50.496 122.254 50.496 122.252 50.496C122.251 50.496 122.249 50.496 122.247 50.496C122.245 50.496 122.243 50.496 122.241 50.496C122.239 50.496 122.238 50.496 122.236 50.496C122.234 50.496 122.232 50.496 122.23 50.496C122.228 50.496 122.227 50.496 122.225 50.496C122.223 50.496 122.221 50.496 122.219 50.496C122.218 50.496 122.216 50.496 122.214 50.496C122.212 50.496 122.21 50.496 122.208 50.496C122.207 50.496 122.205 50.496 122.203 50.496C122.201 50.496 122.199 50.496 122.198 50.496C122.196 50.496 122.194 50.496 122.192 50.496C122.19 50.496 122.188 50.496 122.187 50.496C122.185 50.496 122.183 50.496 122.181 50.496C122.179 50.496 122.178 50.496 122.176 50.496C122.174 50.496 122.172 50.496 122.17 50.496C122.169 50.496 122.167 50.496 122.165 50.496C122.163 50.496 122.161 50.496 122.16 50.496C122.158 50.496 122.156 50.496 122.154 50.496C122.153 50.496 122.151 50.496 122.149 50.496C122.147 50.496 122.145 50.496 122.144 50.496C122.142 50.496 122.14 50.496 122.138 50.496C122.137 50.496 122.135 50.496 122.133 50.496C122.131 50.496 122.129 50.496 122.128 50.496C122.126 50.496 122.124 50.496 122.122 50.496C122.121 50.496 122.119 50.496 122.117 50.496C122.115 50.496 122.114 50.496 122.112 50.496C122.11 50.496 122.108 50.496 122.106 50.496C122.105 50.496 122.103 50.496 122.101 50.496C122.099 50.496 122.098 50.496 122.096 50.496C122.094 50.496 122.092 50.496 122.091 50.496C122.089 50.496 122.087 50.496 122.085 50.496C122.084 50.496 122.082 50.496 122.08 50.496C122.078 50.496 122.077 50.496 122.075 50.496C122.073 50.496 122.072 50.496 122.07 50.496C122.068 50.496 122.066 50.496 122.065 50.496C122.063 50.496 122.061 50.496 122.059 50.496C122.058 50.496 122.056 50.496 122.054 50.496C122.053 50.496 122.051 50.496 122.049 50.496C122.047 50.496 122.046 50.496 122.044 50.496C122.042 50.496 122.04 50.496 122.039 50.496C122.037 50.496 122.035 50.496 122.034 50.496C122.032 50.496 122.03 50.496 122.029 50.496C122.027 50.496 122.025 50.496 122.023 50.496C122.022 50.496 122.02 50.496 122.018 50.496C122.017 50.496 122.015 50.496 122.013 50.496C122.011 50.496 122.01 50.496 122.008 50.496C122.006 50.496 122.005 50.496 122.003 50.496C122.001 50.496 122 50.496 121.998 50.496C121.996 50.496 121.995 50.496 121.993 50.496C121.991 50.496 121.989 50.496 121.988 50.496C121.986 50.496 121.984 50.496 121.983 50.496C121.981 50.496 121.979 50.496 121.978 50.496C121.976 50.496 121.974 50.496 121.973 50.496C121.971 50.496 121.969 50.496 121.968 50.496C121.966 50.496 121.964 50.496 121.963 50.496C121.961 50.496 121.959 50.496 121.958 50.496C121.956 50.496 121.954 50.496 121.953 50.496C121.951 50.496 121.949 50.496 121.948 50.496C121.946 50.496 121.944 50.496 121.943 50.496C121.941 50.496 121.939 50.496 121.938 50.496C121.936 50.496 121.935 50.496 121.933 50.496C121.931 50.496 121.93 50.496 121.928 50.496C121.926 50.496 121.925 50.496 121.923 50.496C121.921 50.496 121.92 50.496 121.918 50.496C121.916 50.496 121.915 50.496 121.913 50.496C121.912 50.496 121.91 50.496 121.908 50.496C121.907 50.496 121.905 50.496 121.903 50.496C121.902 50.496 121.9 50.496 121.899 50.496C121.897 50.496 121.895 50.496 121.894 50.496C121.892 50.496 121.89 50.496 121.889 50.496C121.887 50.496 121.886 50.496 121.884 50.496C121.882 50.496 121.881 50.496 121.879 50.496C121.878 50.496 121.876 50.496 121.874 50.496C121.873 50.496 121.871 50.496 121.87 50.496C121.868 50.496 121.866 50.496 121.865 50.496C121.863 50.496 121.861 50.496 121.86 50.496C121.858 50.496 121.857 50.496 121.855 50.496C121.854 50.496 121.852 50.496 121.85 50.496C121.849 50.496 121.847 50.496 121.846 50.496C121.844 50.496 121.842 50.496 121.841 50.496C121.839 50.496 121.838 50.496 121.836 50.496C121.834 50.496 121.833 50.496 121.831 50.496C121.83 50.496 121.828 50.496 121.827 50.496C121.825 50.496 121.823 50.496 121.822 50.496C121.82 50.496 121.819 50.496 121.817 50.496C121.816 50.496 121.814 50.496 121.812 50.496C121.811 50.496 121.809 50.496 121.808 50.496C121.806 50.496 121.805 50.496 121.803 50.496C121.802 50.496 121.8 50.496 121.798 50.496C121.797 50.496 121.795 50.496 121.794 50.496C121.792 50.496 121.791 50.496 121.789 50.496C121.788 50.496 121.786 50.496 121.784 50.496C121.783 50.496 121.781 50.496 121.78 50.496C121.778 50.496 121.777 50.496 121.775 50.496C121.774 50.496 121.772 50.496 121.771 50.496C121.769 50.496 121.768 50.496 121.766 50.496C121.764 50.496 121.763 50.496 121.761 50.496C121.76 50.496 121.758 50.496 121.757 50.496C121.755 50.496 121.754 50.496 121.752 50.496C121.751 50.496 121.749 50.496 121.748 50.496C121.746 50.496 121.745 50.496 121.743 50.496C121.742 50.496 121.74 50.496 121.739 50.496C121.737 50.496 121.736 50.496 121.734 50.496C121.733 50.496 121.731 50.496 121.73 50.496C121.728 50.496 121.727 50.496 121.725 50.496C121.724 50.496 121.722 50.496 121.721 50.496C121.719 50.496 121.718 50.496 121.716 50.496C121.715 50.496 121.713 50.496 121.712 50.496C121.71 50.496 121.709 50.496 121.707 50.496C121.706 50.496 121.704 50.496 121.703 50.496C121.701 50.496 121.7 50.496 121.698 50.496C121.697 50.496 121.695 50.496 121.694 50.496C121.692 50.496 121.691 50.496 121.689 50.496C121.688 50.496 121.686 50.496 121.685 50.496C121.683 50.496 121.682 50.496 121.68 50.496C121.679 50.496 121.677 50.496 121.676 50.496C121.675 50.496 121.673 50.496 121.672 50.496C121.67 50.496 121.669 50.496 121.667 50.496C121.666 50.496 121.664 50.496 121.663 50.496C121.661 50.496 121.66 50.496 121.658 50.496C121.657 50.496 121.656 50.496 121.654 50.496C121.653 50.496 121.651 50.496 121.65 50.496C121.648 50.496 121.647 50.496 121.645 50.496C121.644 50.496 121.643 50.496 121.641 50.496C121.64 50.496 121.638 50.496 121.637 50.496C121.635 50.496 121.634 50.496 121.632 50.496C121.631 50.496 121.63 50.496 121.628 50.496C121.627 50.496 121.625 50.496 121.624 50.496C121.622 50.496 121.621 50.496 121.62 50.496C121.618 50.496 121.617 50.496 121.615 50.496C121.614 50.496 121.612 50.496 121.611 50.496C121.61 50.496 121.608 50.496 121.607 50.496C121.605 50.496 121.604 50.496 121.603 50.496C121.601 50.496 121.6 50.496 121.598 50.496C121.597 50.496 121.596 50.496 121.594 50.496C121.593 50.496 121.591 50.496 121.59 50.496C121.588 50.496 121.587 50.496 121.586 50.496C121.584 50.496 121.583 50.496 121.582 50.496C121.58 50.496 121.579 50.496 121.577 50.496C121.576 50.496 121.575 50.496 121.573 50.496C121.572 50.496 121.57 50.496 121.569 50.496C121.568 50.496 121.566 50.496 121.565 50.496C121.563 50.496 121.562 50.496 121.561 50.496C121.559 50.496 121.558 50.496 121.557 50.496C121.555 50.496 121.554 50.496 121.552 50.496C121.551 50.496 121.55 50.496 121.548 50.496C121.547 50.496 121.546 50.496 121.544 50.496C121.543 50.496 121.541 50.496 121.54 50.496C121.539 50.496 121.537 50.496 121.536 50.496C121.535 50.496 121.533 50.496 121.532 50.496C121.531 50.496 121.529 50.496 121.528 50.496C121.527 50.496 121.525 50.496 121.524 50.496C121.522 50.496 121.521 50.496 121.52 50.496C121.518 50.496 121.517 50.496 121.516 50.496C121.514 50.496 121.513 50.496 121.512 50.496C121.51 50.496 121.509 50.496 121.508 50.496C121.506 50.496 121.505 50.496 121.504 50.496C121.502 50.496 121.501 50.496 121.5 50.496C121.498 50.496 121.497 50.496 121.496 50.496C121.494 50.496 121.493 50.496 121.492 50.496C121.49 50.496 121.489 50.496 121.488 50.496C121.486 50.496 121.485 50.496 121.484 50.496C121.482 50.496 121.481 50.496 121.48 50.496C121.479 50.496 121.477 50.496 121.476 50.496C121.475 50.496 121.473 50.496 121.472 50.496C121.471 50.496 121.469 50.496 121.468 50.496C121.467 50.496 121.465 50.496 121.464 50.496C121.463 50.496 121.462 50.496 121.46 50.496C121.459 50.496 121.458 50.496 121.456 50.496C121.455 50.496 121.454 50.496 121.453 50.496C121.451 50.496 121.45 50.496 121.449 50.496C121.447 50.496 121.446 50.496 121.445 50.496C121.443 50.496 121.442 50.496 121.441 50.496C121.44 50.496 121.438 50.496 121.437 50.496C121.436 50.496 121.435 50.496 121.433 50.496C121.432 50.496 121.431 50.496 121.429 50.496C121.428 50.496 121.427 50.496 121.426 50.496C121.424 50.496 121.423 50.496 121.422 50.496C121.421 50.496 121.419 50.496 121.418 50.496C121.417 50.496 121.415 50.496 121.414 50.496C121.413 50.496 121.412 50.496 121.41 50.496C121.409 50.496 121.408 50.496 121.407 50.496C121.405 50.496 121.404 50.496 121.403 50.496C121.402 50.496 121.4 50.496 121.399 50.496C121.398 50.496 121.397 50.496 121.395 50.496C121.394 50.496 121.393 50.496 121.392 50.496C121.391 50.496 121.389 50.496 121.388 50.496C121.387 50.496 121.386 50.496 121.384 50.496C121.383 50.496 121.382 50.496 121.381 50.496C121.379 50.496 121.378 50.496 121.377 50.496C121.376 50.496 121.375 50.496 121.373 50.496C121.372 50.496 121.371 50.496 121.37 50.496C121.368 50.496 121.367 50.496 121.366 50.496C121.365 50.496 121.364 50.496 121.362 50.496C121.361 50.496 121.36 50.496 121.359 50.496C121.357 50.496 121.356 50.496 121.355 50.496C121.354 50.496 121.353 50.496 121.351 50.496C121.35 50.496 121.349 50.496 121.348 50.496C121.347 50.496 121.345 50.496 121.344 50.496C121.343 50.496 121.342 50.496 121.341 50.496C121.339 50.496 121.338 50.496 121.337 50.496C121.336 50.496 121.335 50.496 121.334 50.496C121.332 50.496 121.331 50.496 121.33 50.496C121.329 50.496 121.328 50.496 121.326 50.496C121.325 50.496 121.324 50.496 121.323 50.496C121.322 50.496 121.321 50.496 121.319 50.496C121.318 50.496 121.317 50.496 121.316 50.496C121.315 50.496 121.313 50.496 121.312 50.496C121.311 50.496 121.31 50.496 121.309 50.496C121.308 50.496 121.306 50.496 121.305 50.496C121.304 50.496 121.303 50.496 121.302 50.496C121.301 50.496 121.3 50.496 121.298 50.496C121.297 50.496 121.296 50.496 121.295 50.496C121.294 50.496 121.293 50.496 121.291 50.496C121.29 50.496 121.289 50.496 121.288 50.496C121.287 50.496 121.286 50.496 121.285 50.496C121.283 50.496 121.282 50.496 121.281 50.496C121.28 50.496 121.279 50.496 121.278 50.496C121.277 50.496 121.275 50.496 121.274 50.496C121.273 50.496 121.272 50.496 121.271 50.496C121.27 50.496 121.269 50.496 121.268 50.496C121.266 50.496 121.265 50.496 121.264 50.496C121.263 50.496 121.262 50.496 121.261 50.496C121.26 50.496 121.259 50.496 121.257 50.496C121.256 50.496 121.255 50.496 121.254 50.496C121.253 50.496 121.252 50.496 121.251 50.496C121.25 50.496 121.249 50.496 121.247 50.496C121.246 50.496 121.245 50.496 121.244 50.496C121.243 50.496 121.242 50.496 121.241 50.496C121.24 50.496 121.239 50.496 121.238 50.496C121.236 50.496 121.235 50.496 121.234 50.496C121.233 50.496 121.232 50.496 121.231 50.496C121.23 50.496 121.229 50.496 121.228 50.496C121.227 50.496 121.226 50.496 121.225 50.496C121.223 50.496 121.222 50.496 121.221 50.496C121.22 50.496 121.219 50.496 121.218 50.496C121.217 50.496 121.216 50.496 121.215 50.496C121.214 50.496 121.213 50.496 121.212 50.496C121.211 50.496 121.209 50.496 121.208 50.496C121.207 50.496 121.206 50.496 121.205 50.496C121.204 50.496 121.203 50.496 121.202 50.496C121.201 50.496 121.2 50.496 121.199 50.496C121.198 50.496 121.197 50.496 121.196 50.496C121.195 50.496 121.194 50.496 121.192 50.496C121.191 50.496 121.19 50.496 121.189 50.496C121.188 50.496 121.187 50.496 121.186 50.496C121.185 50.496 121.184 50.496 121.183 50.496C121.182 50.496 121.181 50.496 121.18 50.496C121.179 50.496 121.178 50.496 121.177 50.496C121.176 50.496 121.175 50.496 121.174 50.496C121.173 50.496 121.172 50.496 121.171 50.496C121.17 50.496 121.169 50.496 121.168 50.496C121.167 50.496 121.166 50.496 121.165 50.496C121.163 50.496 121.162 50.496 121.161 50.496C121.16 50.496 121.159 50.496 121.158 50.496C121.157 50.496 121.156 50.496 121.155 50.496C121.154 50.496 121.153 50.496 121.152 50.496C121.151 50.496 121.15 50.496 121.149 50.496C121.148 50.496 121.147 50.496 121.146 50.496C121.145 50.496 121.144 50.496 121.143 50.496C121.142 50.496 121.141 50.496 121.14 50.496C121.139 50.496 121.138 50.496 121.137 50.496C121.136 50.496 121.135 50.496 121.134 50.496C121.133 50.496 121.132 50.496 121.131 50.496C121.13 50.496 121.129 50.496 121.128 50.496C121.127 50.496 121.126 50.496 121.126 50.496C121.125 50.496 121.124 50.496 121.123 50.496C121.122 50.496 121.121 50.496 121.12 50.496C121.119 50.496 121.118 50.496 121.117 50.496C121.116 50.496 121.115 50.496 121.114 50.496C121.113 50.496 121.112 50.496 121.111 50.496C121.11 50.496 121.109 50.496 121.108 50.496C121.107 50.496 121.106 50.496 121.105 50.496C121.104 50.496 121.103 50.496 121.102 50.496C121.101 50.496 121.1 50.496 121.099 50.496C121.099 50.496 121.098 50.496 121.097 50.496C121.096 50.496 121.095 50.496 121.094 50.496C121.093 50.496 121.092 50.496 121.091 50.496C121.09 50.496 121.089 50.496 121.088 50.496C121.087 50.496 121.086 50.496 121.085 50.496C121.084 50.496 121.083 50.496 121.083 50.496C121.082 50.496 121.081 50.496 121.08 50.496C121.079 50.496 121.078 50.496 121.077 50.496C121.076 50.496 121.075 50.496 121.074 50.496C121.073 50.496 121.072 50.496 121.071 50.496C121.071 50.496 121.07 50.496 121.069 50.496C121.068 50.496 121.067 50.496 121.066 50.496C121.065 50.496 121.064 50.496 121.063 50.496C121.062 50.496 121.061 50.496 121.061 50.496C121.06 50.496 121.059 50.496 121.058 50.496C121.057 50.496 121.056 50.496 121.055 50.496C121.054 50.496 121.053 50.496 121.052 50.496C121.052 50.496 121.051 50.496 121.05 50.496C121.049 50.496 121.048 50.496 121.047 50.496C121.046 50.496 121.045 50.496 121.044 50.496C121.044 50.496 121.043 50.496 121.042 50.496C121.041 50.496 121.04 50.496 121.039 50.496C121.038 50.496 121.037 50.496 121.037 50.496C121.036 50.496 121.035 50.496 121.034 50.496C121.033 50.496 121.032 50.496 121.031 50.496C121.03 50.496 121.03 50.496 121.029 50.496C121.028 50.496 121.027 50.496 121.026 50.496C121.025 50.496 121.024 50.496 121.023 50.496C121.023 50.496 121.022 50.496 121.021 50.496C121.02 50.496 121.019 50.496 121.018 50.496C121.018 50.496 121.017 50.496 121.016 50.496C121.015 50.496 121.014 50.496 121.013 50.496C121.012 50.496 121.012 50.496 121.011 50.496C121.01 50.496 121.009 50.496 121.008 50.496C121.007 50.496 121.007 50.496 121.006 50.496C121.005 50.496 121.004 50.496 121.003 50.496C121.002 50.496 121.002 50.496 121.001 50.496C121 50.496 120.999 50.496 120.998 50.496C120.997 50.496 120.997 50.496 120.996 50.496C120.995 50.496 120.994 50.496 120.993 50.496C120.992 50.496 120.992 50.496 120.991 50.496C120.99 50.496 120.989 50.496 120.988 50.496C120.988 50.496 120.987 50.496 120.986 50.496C120.985 50.496 120.984 50.496 120.984 50.496C120.983 50.496 120.982 50.496 120.981 50.496C120.98 50.496 120.98 50.496 120.979 50.496C120.978 50.496 120.977 50.496 120.976 50.496C120.976 50.496 120.975 50.496 120.974 50.496C120.973 50.496 120.972 50.496 120.972 50.496C120.971 50.496 120.97 50.496 120.969 50.496C120.968 50.496 120.968 50.496 120.967 50.496C120.966 50.496 120.965 50.496 120.964 50.496C120.964 50.496 120.963 50.496 120.962 50.496C120.961 50.496 120.961 50.496 120.96 50.496C120.959 50.496 120.958 50.496 120.958 50.496C120.957 50.496 120.956 50.496 120.955 50.496C120.954 50.496 120.954 50.496 120.953 50.496C120.952 50.496 120.951 50.496 120.951 50.496C120.95 50.496 120.949 50.496 120.948 50.496C120.948 50.496 120.947 50.496 120.946 50.496C120.945 50.496 120.945 50.496 120.944 50.496C120.943 50.496 120.942 50.496 120.942 50.496C120.941 50.496 120.94 50.496 120.939 50.496C120.939 50.496 120.938 50.496 120.937 50.496C120.936 50.496 120.936 50.496 120.935 50.496C120.934 50.496 120.933 50.496 120.933 50.496C120.932 50.496 120.931 50.496 120.93 50.496C120.93 50.496 120.929 50.496 120.928 50.496C120.928 50.496 120.927 50.496 120.926 50.496C120.925 50.496 120.925 50.496 120.924 50.496C120.923 50.496 120.922 50.496 120.922 50.496C120.921 50.496 120.92 50.496 120.92 50.496C120.919 50.496 120.918 50.496 120.917 50.496C120.917 50.496 120.916 50.496 120.915 50.496C120.915 50.496 120.914 50.496 120.913 50.496C120.912 50.496 120.912 50.496 120.911 50.496C120.91 50.496 120.91 50.496 120.909 50.496C120.908 50.496 120.908 50.496 120.907 50.496C120.906 50.496 120.906 50.496 120.905 50.496C120.904 50.496 120.903 50.496 120.903 50.496C120.902 50.496 120.901 50.496 120.901 50.496C120.9 50.496 120.899 50.496 120.899 50.496C120.898 50.496 120.897 50.496 120.897 50.496C120.896 50.496 120.895 50.496 120.895 50.496C120.894 50.496 120.893 50.496 120.893 50.496C120.892 50.496 120.891 50.496 120.891 50.496C120.89 50.496 120.889 50.496 120.889 50.496C120.888 50.496 120.887 50.496 120.887 50.496C120.886 50.496 120.885 50.496 120.885 50.496C120.884 50.496 120.883 50.496 120.883 50.496C120.882 50.496 120.881 50.496 120.881 50.496C120.88 50.496 120.879 50.496 120.879 50.496C120.878 50.496 120.877 50.496 120.877 50.496C120.876 50.496 120.875 50.496 120.875 50.496C120.874 50.496 120.873 50.496 120.873 50.496C120.872 50.496 120.872 50.496 120.871 50.496C120.87 50.496 120.87 50.496 120.869 50.496C120.868 50.496 120.868 50.496 120.867 50.496C120.866 50.496 120.866 50.496 120.865 50.496C120.865 50.496 120.864 50.496 120.863 50.496C120.863 50.496 120.862 50.496 120.861 50.496C120.861 50.496 120.86 50.496 120.86 50.496C120.859 50.496 120.858 50.496 120.858 50.496C120.857 50.496 120.857 50.496 120.856 50.496C120.855 50.496 120.855 50.496 120.854 50.496C120.853 50.496 120.853 50.496 120.852 50.496C120.852 50.496 120.851 50.496 120.85 50.496C120.85 50.496 120.849 50.496 120.849 50.496C120.848 50.496 120.847 50.496 120.847 50.496C120.846 50.496 120.846 50.496 120.845 50.496C120.844 50.496 120.844 50.496 120.843 50.496C120.843 50.496 120.842 50.496 120.842 50.496C120.841 50.496 120.84 50.496 120.84 50.496C120.839 50.496 120.839 50.496 120.838 50.496C120.837 50.496 120.837 50.496 120.836 50.496C120.836 50.496 120.835 50.496 120.835 50.496C120.834 50.496 120.833 50.496 120.833 50.496C120.832 50.496 120.832 50.496 120.831 50.496C120.831 50.496 120.83 50.496 120.83 50.496C120.829 50.496 120.828 50.496 120.828 50.496C120.827 50.496 120.827 50.496 120.826 50.496C120.826 50.496 120.825 50.496 120.824 50.496C120.824 50.496 120.823 50.496 120.823 50.496C120.822 50.496 120.822 50.496 120.821 50.496C120.821 50.496 120.82 50.496 120.82 50.496C120.819 50.496 120.818 50.496 120.818 50.496C120.817 50.496 120.817 50.496 120.816 50.496C120.816 50.496 120.815 50.496 120.815 50.496C120.814 50.496 120.814 50.496 120.813 50.496C120.813 50.496 120.812 50.496 120.812 50.496C120.811 50.496 120.81 50.496 120.81 50.496C120.809 50.496 120.809 50.496 120.808 50.496C120.808 50.496 120.807 50.496 120.807 50.496C120.806 50.496 120.806 50.496 120.805 50.496C120.805 50.496 120.804 50.496 120.804 50.496C120.803 50.496 120.803 50.496 120.802 50.496C120.802 50.496 120.801 50.496 120.801 50.496C120.8 50.496 120.8 50.496 120.799 50.496C120.799 50.496 120.798 50.496 120.798 50.496C120.797 50.496 120.797 50.496 120.796 50.496C120.796 50.496 120.795 50.496 120.795 50.496C120.794 50.496 120.794 50.496 120.793 50.496C120.793 50.496 120.792 50.496 120.792 50.496C120.791 50.496 120.791 50.496 120.79 50.496C120.79 50.496 120.789 50.496 120.789 50.496C120.788 50.496 120.788 50.496 120.787 50.496C120.787 50.496 120.787 50.496 120.786 50.496C120.786 50.496 120.785 50.496 120.785 50.496C120.784 50.496 120.784 50.496 120.783 50.496C120.783 50.496 120.782 50.496 120.782 50.496C120.781 50.496 120.781 50.496 120.781 50.496C120.78 50.496 120.78 50.496 120.779 50.496C120.779 50.496 120.778 50.496 120.778 50.496C120.777 50.496 120.777 50.496 120.776 50.496C120.776 50.496 120.776 50.496 120.775 50.496C120.775 50.496 120.774 50.496 120.774 50.496C120.773 50.496 120.773 50.496 120.772 50.496C120.772 50.496 120.772 50.496 120.771 50.496C120.771 50.496 120.77 50.496 120.77 50.496C120.769 50.496 120.769 50.496 120.769 50.496C120.768 50.496 120.768 50.496 120.767 50.496C120.767 50.496 120.766 50.496 120.766 50.496C120.766 50.496 120.765 50.496 120.765 50.496C120.764 50.496 120.764 50.496 120.763 50.496C120.763 50.496 120.763 50.496 120.762 50.496C120.762 50.496 120.761 50.496 120.761 50.496C120.761 50.496 120.76 50.496 120.76 50.496C120.759 50.496 120.759 50.496 120.759 50.496C120.758 50.496 120.758 50.496 120.757 50.496C120.757 50.496 120.757 50.496 120.756 50.496C120.756 50.496 120.755 50.496 120.755 50.496C120.755 50.496 120.754 50.496 120.754 50.496C120.753 50.496 120.753 50.496 120.753 50.496C120.752 50.496 120.752 50.496 120.751 50.496C120.751 50.496 120.751 50.496 120.75 50.496C120.75 50.496 120.75 50.496 120.749 50.496C120.749 50.496 120.748 50.496 120.748 50.496C120.748 50.496 120.747 50.496 120.747 50.496C120.747 50.496 120.746 50.496 120.746 50.496C120.745 50.496 120.745 50.496 120.745 50.496C120.744 50.496 120.744 50.496 120.744 50.496C120.743 50.496 120.743 50.496 120.743 50.496C120.742 50.496 120.742 50.496 120.742 50.496C120.741 50.496 120.741 50.496 120.74 50.496C120.74 50.496 120.74 50.496 120.739 50.496C120.739 50.496 120.739 50.496 120.738 50.496C120.738 50.496 120.738 50.496 120.737 50.496C120.737 50.496 120.737 50.496 120.736 50.496C120.736 50.496 120.736 50.496 120.735 50.496C120.735 50.496 120.735 50.496 120.734 50.496C120.734 50.496 120.734 50.496 120.733 50.496C120.733 50.496 120.733 50.496 120.732 50.496C120.732 50.496 120.732 50.496 120.731 50.496C120.731 50.496 120.731 50.496 120.73 50.496C120.73 50.496 120.73 50.496 120.729 50.496C120.729 50.496 120.729 50.496 120.729 50.496C120.728 50.496 120.728 50.496 120.728 50.496C120.727 50.496 120.727 50.496 120.727 50.496C120.726 50.496 120.726 50.496 120.726 50.496C120.725 50.496 120.725 50.496 120.725 50.496C120.725 50.496 120.724 50.496 120.724 50.496C120.724 50.496 120.723 50.496 120.723 50.496C120.723 50.496 120.722 50.496 120.722 50.496C120.722 50.496 120.722 50.496 120.721 50.496C120.721 50.496 120.721 50.496 120.72 50.496C120.72 50.496 120.72 50.496 120.72 50.496C120.719 50.496 120.719 50.496 120.719 50.496C120.719 50.496 120.718 50.496 120.718 50.496C120.718 50.496 120.717 50.496 120.717 50.496C120.717 50.496 120.717 50.496 120.716 50.496C120.716 50.496 120.716 50.496 120.716 50.496C120.715 50.496 120.715 50.496 120.715 50.496C120.715 50.496 120.714 50.496 120.714 50.496C120.714 50.496 120.714 50.496 120.713 50.496C120.713 50.496 120.713 50.496 120.713 50.496V56.496ZM122.377 56.496C123.652 56.496 124.892 56.3363 126.081 55.9966L124.432 50.2274C123.829 50.3997 123.149 50.496 122.377 50.496V56.496ZM126.205 55.958C126.747 55.7775 127.299 55.5587 127.794 55.2815C128.217 55.045 128.969 54.5664 129.461 53.7044L124.252 50.7276C124.43 50.4154 124.627 50.2312 124.72 50.1525C124.817 50.0694 124.878 50.0379 124.863 50.0465C124.852 50.0527 124.803 50.0785 124.704 50.12C124.606 50.1607 124.476 50.2099 124.308 50.2659L126.205 55.958ZM129.461 53.7044C130.03 52.7093 130.113 51.591 130.113 50.808H124.113C124.113 50.9023 124.109 50.9741 124.105 51.0259C124.103 51.0514 124.101 51.0706 124.1 51.0839C124.098 51.0972 124.097 51.1035 124.097 51.1033C124.097 51.1032 124.098 51.0953 124.102 51.0804C124.106 51.0655 124.112 51.0421 124.122 51.0113C124.142 50.9518 124.181 50.8514 124.252 50.7276L129.461 53.7044ZM130.113 50.808V45.688H124.113V50.808H130.113ZM126.907 48.681L133.435 49.129L133.846 43.143L127.318 42.695L126.907 48.681ZM130.641 46.136V57.208H136.641V46.136H130.641ZM132.245 54.5525C129.471 56.0103 125.786 56.832 121.033 56.832V62.832C126.433 62.832 131.154 61.9043 135.036 59.8635L132.245 54.5525ZM118.129 59.0771L117.297 62.2771L123.104 63.7869L123.936 60.5869L118.129 59.0771ZM119.987 66.0244C121.331 66.1204 122.1 66.4799 122.559 66.8651L126.418 62.2709C124.743 60.8641 122.654 60.1996 120.414 60.0396L119.987 66.0244ZM122.603 66.9018C122.814 67.0722 123.153 67.4542 123.153 68.664H129.153C129.153 66.2045 128.381 63.8558 126.374 62.2342L122.603 66.9018ZM123.153 68.664C123.153 69.517 122.888 69.9769 122.201 70.4041L125.368 75.4999C127.838 73.9644 129.153 71.5657 129.153 68.664H123.153ZM122.12 70.4558C121.141 71.1091 119.924 71.488 118.345 71.488V77.488C120.946 77.488 123.356 76.8429 125.449 75.4482L122.12 70.4558ZM118.345 71.488C116.63 71.488 115.125 71.175 113.79 70.5891L111.379 76.0829C113.543 77.033 115.878 77.488 118.345 77.488V71.488ZM115.452 74.2183L116.476 70.8903L110.741 69.1257L109.717 72.4537L115.452 74.2183ZM112.66 72.8541C114.5 73.4675 116.267 73.84 117.897 73.84V67.84C117.137 67.84 116.045 67.6578 114.557 67.162L112.66 72.8541ZM117.897 73.84C119.236 73.84 120.794 73.5885 122.063 72.5841C123.465 71.474 123.969 69.8917 123.969 68.408H117.969C117.969 68.5024 117.953 68.4463 118.012 68.3078C118.041 68.2378 118.085 68.1582 118.146 68.0779C118.207 67.9976 118.273 67.9313 118.338 67.8799C118.468 67.777 118.544 67.7691 118.475 67.7873C118.401 67.8069 118.22 67.84 117.897 67.84V73.84ZM123.969 68.408C123.969 67.3693 123.642 66.3596 122.967 65.5083C122.329 64.7026 121.503 64.1943 120.723 63.8665C119.225 63.2366 117.333 63.04 115.337 63.04V69.04C117.094 69.04 118.019 69.2381 118.398 69.3975C118.557 69.4644 118.435 69.4494 118.266 69.2357C118.06 68.9764 117.969 68.6573 117.969 68.408H123.969ZM118.196 66.9461L120.244 60.4821L114.525 58.6699L112.477 65.1339L118.196 66.9461ZM117.716 56.5943C112.99 56.0693 109.697 54.2728 107.466 51.4001L102.727 55.0799C106.128 59.4606 111.027 61.888 117.053 62.5577L117.716 56.5943ZM107.476 51.4135C105.199 48.4454 103.873 44.0766 103.873 37.944H97.8725C97.8725 44.8674 99.3624 50.6959 102.717 55.0665L107.476 51.4135ZM103.873 37.944C103.873 34.2127 104.409 31.095 105.4 28.5276L99.8015 26.3684C98.4878 29.7744 97.8725 33.6539 97.8725 37.944H103.873ZM105.4 28.5276C106.414 25.8968 107.715 24.0296 109.213 22.7603L105.332 18.1837C102.904 20.2424 101.091 23.0259 99.8015 26.3684L105.4 28.5276ZM109.193 22.7767C112.461 20.0535 116.335 18.672 120.969 18.672V12.672C115.02 12.672 109.764 14.4905 105.352 18.1673L109.193 22.7767ZM120.969 18.672C124.811 18.672 128.388 19.4565 131.734 21.0153L134.267 15.5767C130.104 13.6368 125.659 12.672 120.969 12.672V18.672ZM130.001 18.296V29.176H136.001V18.296H130.001ZM132.795 26.183L126.267 26.631L126.678 32.617L133.206 32.169L132.795 26.183ZM129.473 29.624V24.632H123.473V29.624H129.473ZM129.473 24.632C129.473 23.849 129.39 22.7307 128.821 21.7356L123.612 24.7124C123.541 24.5886 123.502 24.4882 123.482 24.4287C123.472 24.3979 123.466 24.3744 123.462 24.3596C123.458 24.3447 123.457 24.3368 123.457 24.3367C123.457 24.3365 123.458 24.3428 123.46 24.3561C123.461 24.3694 123.463 24.3886 123.465 24.4141C123.469 24.4659 123.473 24.5376 123.473 24.632H129.473ZM141.165 51.832L143.999 52.8133L144 52.8117L141.165 51.832ZM151.469 22.008L154.304 22.9877L155.549 19.3831L151.753 19.0215L151.469 22.008ZM147.437 21.624H144.437V24.3519L147.152 24.6105L147.437 21.624ZM147.437 16.44V13.44H144.437V16.44H147.437ZM162.093 16.44L164.921 15.44L164.214 13.44H162.093V16.44ZM175.149 53.368L172.32 54.368L173.027 56.368H175.149V53.368ZM175.213 53.368L175.37 50.3721L175.291 50.368H175.213V53.368ZM178.861 53.56H181.861V50.7137L179.018 50.5641L178.861 53.56ZM178.861 59V62H181.861V59H178.861ZM162.349 59H159.349V62H162.349V59ZM162.349 53.816L162.112 50.8253L159.349 51.0435V53.816H162.349ZM164.781 53.624L165.017 56.6147L165.074 56.6102L165.131 56.6035L164.781 53.624ZM166.253 53.112L164.131 50.9907L164.131 50.9907L166.253 53.112ZM166.317 51.704L169.18 50.8092L169.169 50.7752L169.158 50.7416L166.317 51.704ZM164.973 47.736L167.814 46.7736L167.124 44.736H164.973V47.736ZM149.997 47.736V44.736H147.85L147.157 46.768L149.997 47.736ZM148.077 53.368L145.237 52.4L143.953 56.1656L147.927 56.3643L148.077 53.368ZM151.917 53.56H154.917V50.7063L152.066 50.5637L151.917 53.56ZM151.917 59V62H154.917V59H151.917ZM137.133 59H134.133V62H137.133V59ZM137.133 53.816L136.861 50.8283L134.133 51.0764V53.816H137.133ZM139.245 53.624L139.516 56.6117L139.529 56.6105L139.245 53.624ZM157.485 23.608V20.608H155.308L154.633 22.6773L157.485 23.608ZM151.533 41.848L148.681 40.9173L147.398 44.848H151.533V41.848ZM163.437 41.848V44.848H167.53L166.297 40.9446L163.437 41.848ZM157.677 23.608L160.537 22.7046L159.875 20.608H157.677V23.608ZM148.589 12.408L146.821 14.832L149.021 16.4365L150.831 14.4011L148.589 12.408ZM145.517 10.168L142.787 8.92399L141.772 11.1505L143.749 12.592L145.517 10.168ZM156.525 6.008L157.398 3.13798L157.398 3.13797L156.525 6.008ZM163.437 4.856L164.856 2.21302L162.324 0.85336L160.857 3.32438L163.437 4.856ZM166.893 6.712L169.697 7.77596L170.631 5.31454L168.312 4.06901L166.893 6.712ZM156.141 11.448L155.231 14.3068L155.261 14.3162L155.29 14.3251L156.141 11.448ZM150.317 10.936L151.558 13.6671L151.657 13.6219L151.753 13.5697L150.317 10.936ZM144 52.8117L154.304 22.9877L148.633 21.0283L138.329 50.8523L144 52.8117ZM151.753 19.0215L147.721 18.6375L147.152 24.6105L151.184 24.9945L151.753 19.0215ZM150.437 21.624V16.44H144.437V21.624H150.437ZM147.437 19.44H162.093V13.44H147.437V19.44ZM159.264 17.44L172.32 54.368L177.977 52.368L164.921 15.44L159.264 17.44ZM175.149 56.368H175.213V50.368H175.149V56.368ZM175.055 56.3639L178.703 56.5559L179.018 50.5641L175.37 50.3721L175.055 56.3639ZM175.861 53.56V59H181.861V53.56H175.861ZM178.861 56H162.349V62H178.861V56ZM165.349 59V53.816H159.349V59H165.349ZM162.585 56.8067L165.017 56.6147L164.544 50.6333L162.112 50.8253L162.585 56.8067ZM165.131 56.6035C165.955 56.5065 167.351 56.2559 168.374 55.2333L164.131 50.9907C164.287 50.8348 164.432 50.7382 164.528 50.6833C164.624 50.6285 164.69 50.6044 164.707 50.5985C164.731 50.59 164.656 50.6179 164.43 50.6445L165.131 56.6035ZM168.374 55.2333C169.174 54.4336 169.423 53.4576 169.457 52.7042C169.49 51.9883 169.342 51.3281 169.18 50.8092L163.453 52.5988C163.504 52.7626 163.452 52.6784 163.464 52.4318C163.477 52.1477 163.587 51.5344 164.131 50.9907L168.374 55.2333ZM169.158 50.7416L167.814 46.7736L162.131 48.6984L163.475 52.6664L169.158 50.7416ZM164.973 44.736H149.997V50.736H164.973V44.736ZM147.157 46.768L145.237 52.4L150.916 54.336L152.836 48.704L147.157 46.768ZM147.927 56.3643L151.767 56.5563L152.066 50.5637L148.226 50.3717L147.927 56.3643ZM148.917 53.56V59H154.917V53.56H148.917ZM151.917 56H137.133V62H151.917V56ZM140.133 59V53.816H134.133V59H140.133ZM137.404 56.8037L139.516 56.6117L138.973 50.6363L136.861 50.8283L137.404 56.8037ZM139.529 56.6105C140.616 56.507 141.625 56.069 142.443 55.3052C143.222 54.5786 143.7 53.6792 143.999 52.8133L138.33 50.8507C138.245 51.0942 138.211 51.048 138.35 50.9188C138.423 50.8502 138.525 50.7783 138.65 50.7226C138.774 50.6673 138.884 50.6447 138.96 50.6375L139.529 56.6105ZM154.633 22.6773L148.681 40.9173L154.384 42.7787L160.336 24.5386L154.633 22.6773ZM151.533 44.848H163.437V38.848H151.533V44.848ZM166.297 40.9446L160.537 22.7046L154.816 24.5114L160.576 42.7514L166.297 40.9446ZM157.677 20.608H157.485V26.608H157.677V20.608ZM150.356 9.98397L147.284 7.74398L143.749 12.592L146.821 14.832L150.356 9.98397ZM148.246 11.412C149.479 8.70748 150.791 8.112 152.045 8.112V2.112C147.666 2.112 144.626 4.88718 142.787 8.92399L148.246 11.412ZM152.045 8.112C152.605 8.112 153.747 8.29863 155.651 8.87802L157.398 3.13797C155.376 2.52269 153.532 2.112 152.045 2.112V8.112ZM155.651 8.87802C157.627 9.47953 159.431 9.904 160.813 9.904V3.904C160.402 3.904 159.347 3.73114 157.398 3.13798L155.651 8.87802ZM160.813 9.904C163.391 9.904 165.048 8.01732 166.016 6.38761L160.857 3.32438C160.718 3.55908 160.597 3.72806 160.5 3.84572C160.403 3.96386 160.342 4.01476 160.327 4.02705C160.313 4.03772 160.353 4.00411 160.448 3.96837C160.548 3.93065 160.675 3.904 160.813 3.904V9.904ZM162.017 7.49898L165.473 9.35498L168.312 4.06901L164.856 2.21302L162.017 7.49898ZM164.088 5.64803C163.499 7.20004 162.842 8.09841 162.253 8.59615C161.718 9.04812 161.115 9.28 160.301 9.28V15.28C162.473 15.28 164.462 14.5839 166.124 13.1798C167.732 11.8216 168.878 9.93595 169.697 7.77596L164.088 5.64803ZM160.301 9.28C159.869 9.28 158.839 9.11704 156.991 8.57095L155.29 14.3251C157.197 14.8883 158.94 15.28 160.301 15.28V9.28ZM157.05 8.58922C155.198 8.00006 153.464 7.552 152.173 7.552V13.552C152.172 13.552 152.178 13.552 152.189 13.5525C152.201 13.553 152.218 13.554 152.24 13.5559C152.286 13.5596 152.348 13.5663 152.428 13.5778C152.592 13.6012 152.807 13.6406 153.08 13.7023C153.629 13.8264 154.341 14.0236 155.231 14.3068L157.05 8.58922ZM152.173 7.552C151.108 7.552 149.941 7.72381 148.88 8.30231L151.753 13.5697C151.686 13.6064 151.67 13.6004 151.74 13.5858C151.812 13.5709 151.951 13.552 152.173 13.552V7.552ZM149.075 8.2049C148.007 8.69062 147.085 9.5835 146.346 10.4149L150.831 14.4011C151.11 14.0867 151.325 13.8778 151.478 13.7477C151.643 13.6073 151.666 13.6179 151.558 13.6671L149.075 8.2049ZM214.004 21.048L216.176 18.979L216.176 18.979L214.004 21.048ZM214.004 54.2L211.772 52.1945L211.771 52.1959L214.004 54.2ZM186.676 54.2L188.933 52.2245L188.933 52.2245L186.676 54.2ZM183.476 27.512L186.269 28.6052L186.272 28.5984L186.275 28.5916L183.476 27.512ZM188.02 20.6L189.98 22.8705L189.982 22.8687L188.02 20.6ZM209.012 48.504L206.336 47.1464L206.325 47.1685L206.314 47.1908L209.012 48.504ZM209.268 27.768L212.042 26.6277L212.036 26.6111L212.028 26.5946L209.268 27.768ZM205.94 23.736L204.259 26.2209L204.275 26.2321L204.292 26.2431L205.94 23.736ZM194.164 24.568L192.157 22.3381L192.143 22.3508L192.129 22.3636L194.164 24.568ZM190.708 30.136L187.829 29.2895L187.829 29.2895L190.708 30.136ZM201.268 18.672C205.548 18.672 209 20.1446 211.831 23.117L216.176 18.979C212.18 14.7834 207.142 12.672 201.268 12.672V18.672ZM211.831 23.117C214.502 25.9219 216.124 30.5128 216.124 37.496H222.124C222.124 29.7165 220.331 23.3421 216.176 18.979L211.831 23.117ZM216.124 37.496C216.124 44.4145 214.512 49.1469 211.772 52.1945L216.235 56.2055C220.322 51.6584 222.124 45.2548 222.124 37.496H216.124ZM211.771 52.1959C209.057 55.2189 205.335 56.832 200.244 56.832V62.832C206.757 62.832 212.208 60.6905 216.236 56.2041L211.771 52.1959ZM200.244 56.832C195.201 56.832 191.558 55.2244 188.933 52.2245L184.418 56.1755C188.363 60.6849 193.766 62.832 200.244 62.832V56.832ZM188.933 52.2245C186.299 49.2134 184.748 44.5701 184.748 37.816H178.748C178.748 45.3979 180.482 51.6772 184.418 56.1755L188.933 52.2245ZM184.748 37.816C184.748 34.1775 185.282 31.1279 186.269 28.6052L180.682 26.4188C179.365 29.7841 178.748 33.6038 178.748 37.816H184.748ZM186.275 28.5916C187.299 25.935 188.569 24.0897 189.98 22.8705L186.059 18.3295C183.716 20.353 181.956 23.1157 180.676 26.4324L186.275 28.5916ZM189.982 22.8687C193.233 20.0565 196.952 18.672 201.268 18.672V12.672C195.514 12.672 190.401 14.5729 186.057 18.3313L189.982 22.8687ZM186.748 37.496C186.748 43.0408 187.692 47.7325 190.034 51.1097C192.515 54.6859 196.262 56.368 200.756 56.368V50.368C197.91 50.368 196.154 49.4048 194.965 47.6903C193.638 45.7768 192.748 42.5325 192.748 37.496H186.748ZM200.756 56.368C203.132 56.368 205.354 55.8752 207.286 54.7368C209.234 53.5893 210.696 51.8979 211.709 49.8172L206.314 47.1908C205.748 48.3528 205.045 49.0934 204.241 49.5672C203.421 50.0501 202.305 50.368 200.756 50.368V56.368ZM211.687 49.8616C213.404 46.4779 214.188 42.4856 214.188 38.008H208.188C208.188 41.8078 207.52 44.8128 206.336 47.1464L211.687 49.8616ZM214.188 38.008C214.188 33.945 213.486 30.1395 212.042 26.6277L206.493 28.9083C207.609 31.6258 208.188 34.647 208.188 38.008H214.188ZM212.028 26.5946C211.081 24.365 209.594 22.548 207.587 21.2289L204.292 26.2431C205.271 26.8867 206.003 27.7576 206.507 28.9414L212.028 26.5946ZM207.62 21.2511C205.531 19.8374 202.99 19.264 200.244 19.264V25.264C202.191 25.264 203.447 25.6719 204.259 26.2209L207.62 21.2511ZM200.244 19.264C197.174 19.264 194.427 20.2944 192.157 22.3381L196.17 26.7979C197.313 25.7696 198.62 25.264 200.244 25.264V19.264ZM192.129 22.3636C190.065 24.2683 188.622 26.5938 187.829 29.2895L193.586 30.9825C194.073 29.3262 194.934 27.9397 196.198 26.7724L192.129 22.3636ZM187.829 29.2895C187.094 31.7897 186.748 34.5351 186.748 37.496H192.748C192.748 34.9955 193.041 32.8343 193.586 30.9825L187.829 29.2895ZM240.516 22.072H243.516V19.2257L240.674 19.0761L240.516 22.072ZM236.868 21.88H233.868V24.7263L236.71 24.8759L236.868 21.88ZM236.868 16.44V13.44H233.868V16.44H236.868ZM252.356 16.44H255.356V13.44H252.356V16.44ZM252.356 21.624L252.628 24.6117L255.356 24.3636V21.624H252.356ZM250.244 21.816L249.972 18.8283L249.954 18.83L249.935 18.8319L250.244 21.816ZM248.388 53.368H245.388V56.2143L248.23 56.3639L248.388 53.368ZM252.036 53.56H255.036V50.7137L252.194 50.5641L252.036 53.56ZM252.036 59V62H255.036V59H252.036ZM236.548 59H233.548V62H236.548V59ZM236.548 53.816L236.276 50.8283L233.548 51.0764V53.816H236.548ZM238.66 53.624L238.932 56.6117L238.994 56.606L239.056 56.5977L238.66 53.624ZM240.068 53.112L242.02 55.3898L242.108 55.3148L242.189 55.2333L240.068 53.112ZM243.516 51.512V22.072H237.516V51.512H243.516ZM240.674 19.0761L237.026 18.8841L236.71 24.8759L240.358 25.0679L240.674 19.0761ZM239.868 21.88V16.44H233.868V21.88H239.868ZM236.868 19.44H252.356V13.44H236.868V19.44ZM249.356 16.44V21.624H255.356V16.44H249.356ZM252.084 18.6363L249.972 18.8283L250.516 24.8037L252.628 24.6117L252.084 18.6363ZM249.935 18.8319C248.842 18.9451 247.587 19.3526 246.629 20.4094C245.669 21.4686 245.388 22.76 245.388 23.864H251.388C251.388 23.7306 251.416 24.0621 251.075 24.4386C250.736 24.8127 250.409 24.8149 250.553 24.8001L249.935 18.8319ZM245.388 23.864V53.368H251.388V23.864H245.388ZM248.23 56.3639L251.878 56.5559L252.194 50.5641L248.546 50.3721L248.23 56.3639ZM249.036 53.56V59H255.036V53.56H249.036ZM252.036 56H236.548V62H252.036V56ZM239.548 59V53.816H233.548V59H239.548ZM236.82 56.8037L238.932 56.6117L238.388 50.6363L236.276 50.8283L236.82 56.8037ZM239.056 56.5977C239.939 56.48 241.082 56.1945 242.02 55.3898L238.116 50.8342C238.303 50.6737 238.45 50.6188 238.467 50.6126C238.485 50.6061 238.428 50.6284 238.264 50.6503L239.056 56.5977ZM242.189 55.2333C243.363 54.0594 243.516 52.4839 243.516 51.512H237.516C237.516 51.7197 237.494 51.7552 237.515 51.6791C237.537 51.5995 237.636 51.3018 237.947 50.9907L242.189 55.2333ZM260.141 22.072H263.141V19.2257L260.299 19.0761L260.141 22.072ZM256.493 21.88H253.493V24.7263L256.335 24.8759L256.493 21.88ZM256.493 16.44V13.44H253.493V16.44H256.493ZM271.981 16.44H274.981V13.44H271.981V16.44ZM271.981 21.624L272.253 24.6117L274.981 24.3636V21.624H271.981ZM269.869 21.816L269.597 18.8283L269.579 18.83L269.56 18.8319L269.869 21.816ZM268.013 53.368H265.013V56.2143L267.855 56.3639L268.013 53.368ZM271.661 53.56H274.661V50.7137L271.819 50.5641L271.661 53.56ZM271.661 59V62H274.661V59H271.661ZM256.173 59H253.173V62H256.173V59ZM256.173 53.816L255.901 50.8283L253.173 51.0764V53.816H256.173ZM258.285 53.624L258.557 56.6117L258.619 56.606L258.681 56.5977L258.285 53.624ZM259.693 53.112L261.645 55.3898L261.733 55.3148L261.814 55.2333L259.693 53.112ZM263.141 51.512V22.072H257.141V51.512H263.141ZM260.299 19.0761L256.651 18.8841L256.335 24.8759L259.983 25.0679L260.299 19.0761ZM259.493 21.88V16.44H253.493V21.88H259.493ZM256.493 19.44H271.981V13.44H256.493V19.44ZM268.981 16.44V21.624H274.981V16.44H268.981ZM271.709 18.6363L269.597 18.8283L270.141 24.8037L272.253 24.6117L271.709 18.6363ZM269.56 18.8319C268.467 18.9451 267.212 19.3526 266.254 20.4094C265.294 21.4686 265.013 22.76 265.013 23.864H271.013C271.013 23.7306 271.041 24.0621 270.7 24.4386C270.361 24.8127 270.034 24.8149 270.178 24.8001L269.56 18.8319ZM265.013 23.864V53.368H271.013V23.864H265.013ZM267.855 56.3639L271.503 56.5559L271.819 50.5641L268.171 50.3721L267.855 56.3639ZM268.661 53.56V59H274.661V53.56H268.661ZM271.661 56H256.173V62H271.661V56ZM259.173 59V53.816H253.173V59H259.173ZM256.445 56.8037L258.557 56.6117L258.013 50.6363L255.901 50.8283L256.445 56.8037ZM258.681 56.5977C259.564 56.48 260.707 56.1945 261.645 55.3898L257.741 50.8342C257.928 50.6737 258.075 50.6188 258.092 50.6126C258.11 50.6061 258.053 50.6284 257.889 50.6503L258.681 56.5977ZM261.814 55.2333C262.988 54.0594 263.141 52.4839 263.141 51.512H257.141C257.141 51.7197 257.119 51.7552 257.14 51.6791C257.162 51.5995 257.261 51.3018 257.572 50.9907L261.814 55.2333Z" fill="black" mask="url(#path-1-outside-1_110_136)"/>
</svg>
