<svg width="279" height="418" viewBox="0 0 279 418" fill="none" xmlns="http://www.w3.org/2000/svg">
<mask id="mask0_319_331" style="mask-type:luminance" maskUnits="userSpaceOnUse" x="132" y="0" width="146" height="163">
<path d="M132.328 0.416687H277.385V162.281H132.328V0.416687Z" fill="white"/>
</mask>
<g mask="url(#mask0_319_331)">
<path d="M132.334 162.281L209.501 0.416687H277.386L197.339 162.281H132.334Z" fill="#2980B9"/>
</g>
<path d="M91.0098 162.281H197.645V182.901C202.077 185.01 206.369 187.37 210.494 189.969V159.406C210.494 153.922 206.005 149.432 200.515 149.432H88.1348C82.6556 149.432 78.166 153.922 78.166 159.406V189.969C82.291 187.37 86.5827 185.01 91.0098 182.901V162.281Z" fill="#823C0C"/>
<mask id="mask1_319_331" style="mask-type:luminance" maskUnits="userSpaceOnUse" x="19" y="168" width="250" height="249">
<path d="M19.7871 168.188H268.771V416.922H19.7871V168.188Z" fill="white"/>
</mask>
<g mask="url(#mask1_319_331)">
<path d="M210.491 187.271C206.366 184.672 202.079 182.312 197.647 180.203C181.486 172.526 163.413 168.229 144.329 168.229C125.246 168.229 107.168 172.526 91.0117 180.203C86.5794 182.312 82.293 184.672 78.1628 187.271C43.1992 209.281 19.9648 248.214 19.9648 292.578C19.9648 361.255 75.6471 416.932 144.329 416.932C213.012 416.932 268.689 361.255 268.689 292.578C268.689 248.214 245.454 209.281 210.491 187.271Z" fill="#E88A4B"/>
</g>
<path d="M249.74 292.578C249.74 306.807 246.948 320.615 241.458 333.604C236.151 346.156 228.542 357.432 218.859 367.109C209.177 376.792 197.911 384.391 185.354 389.698C172.359 395.193 158.563 397.979 144.328 397.979C130.094 397.979 116.292 395.193 103.297 389.698C90.7448 384.391 79.474 376.792 69.7917 367.109C60.1094 357.432 52.5104 346.156 47.2031 333.604C41.7031 320.615 38.9219 306.807 38.9219 292.578C38.9219 278.349 41.7031 264.547 47.2031 251.552C52.5104 239.005 60.1094 227.729 69.7917 218.052C79.474 208.37 90.7448 200.771 103.297 195.464C116.292 189.964 130.094 187.177 144.328 187.177C158.563 187.177 172.359 189.964 185.354 195.464C197.911 200.771 209.177 208.37 218.859 218.052C228.542 227.734 236.151 239.005 241.458 251.552C246.948 264.547 249.74 278.349 249.74 292.578ZM245.542 249.828C240.005 236.75 232.089 225 222 214.911C211.911 204.828 200.167 196.906 187.089 191.375C173.542 185.646 159.156 182.745 144.328 182.745C129.5 182.745 115.109 185.646 101.573 191.375C88.4896 196.906 76.7448 204.828 66.6563 214.911C56.5677 225 48.651 236.75 43.1146 249.828C37.3854 263.37 34.4844 277.755 34.4844 292.578C34.4844 307.406 37.3854 321.792 43.1146 335.333C48.651 348.417 56.5677 360.161 66.6563 370.25C76.7448 380.333 88.4896 388.255 101.573 393.786C115.109 399.51 129.5 402.417 144.328 402.417C159.156 402.417 173.542 399.51 187.089 393.786C200.167 388.255 211.911 380.333 222 370.25C232.089 360.161 240.005 348.417 245.542 335.333C251.266 321.792 254.172 307.406 254.172 292.578C254.172 277.755 251.266 263.37 245.542 249.828Z" fill="#823C0C"/>
<path d="M145.36 183.641C85.1882 183.641 36.4121 232.417 36.4121 292.578C36.4121 352.745 85.1882 401.516 145.36 401.516C205.527 401.516 254.303 352.745 254.303 292.578C254.303 232.417 205.527 183.641 145.36 183.641ZM145.36 186.281C159.714 186.281 173.631 189.089 186.735 194.63C199.396 199.984 210.766 207.651 220.527 217.411C230.292 227.177 237.959 238.547 243.313 251.203C248.855 264.307 251.667 278.229 251.667 292.578C251.667 306.932 248.855 320.854 243.313 333.958C237.959 346.615 230.292 357.979 220.527 367.745C210.766 377.51 199.396 385.172 186.735 390.526C173.631 396.068 159.714 398.88 145.36 398.88C131.001 398.88 117.084 396.068 103.98 390.526C91.3184 385.172 79.9486 377.51 70.1882 367.745C60.4225 357.979 52.7559 346.615 47.4017 333.958C41.86 320.854 39.0527 306.932 39.0527 292.578C39.0527 278.229 41.86 264.307 47.4017 251.203C52.7559 238.547 60.4225 227.177 70.1882 217.411C79.9486 207.651 91.3184 199.984 103.98 194.63C117.084 189.089 131.001 186.281 145.36 186.281Z" fill="#CC6A27"/>
<path d="M49.5365 306.844C51.9636 305.823 60.1615 306.302 63.323 312.583C62.5313 308.714 61.6772 303.625 61.3751 299.583C61.2032 297.193 61.1147 294.823 61.1147 292.469C57.3855 291.74 53.6563 288.24 51.6668 283.089C49.6407 277.812 50.0105 272.276 52.2709 268.807C56.0938 269.302 60.0209 272.625 62.2136 277.724C62.2345 277.766 62.2501 277.807 62.2657 277.849C63.5313 269.922 65.797 262.354 68.9324 255.349C65.8386 254.094 63.0105 250.724 61.6772 246.193C60.2084 241.208 60.948 236.203 63.2605 233.255C66.7136 234.052 70.0626 237.437 71.6876 242.276C72.3438 244.208 72.6511 246.167 72.6459 248.016C77.0886 240.193 82.698 233.25 89.2293 227.516C87.2397 224.953 86.2553 220.917 86.8699 216.661C87.5574 211.828 90.1147 208.068 93.1928 206.766C95.7865 209.104 97.2865 213.531 96.7865 218.318C96.6355 219.75 96.3178 221.099 95.8699 222.323C100.745 218.943 106.021 216.182 111.62 214.141C112.636 210.917 115.396 208.016 119.151 206.693C120.224 206.312 121.302 206.089 122.354 206.01C125.354 205.792 128.13 206.745 129.979 208.589C129.37 212.219 126.589 215.687 122.568 217.323C121.339 217.823 120.094 218.109 118.891 218.198C116.557 218.375 114.37 217.818 112.646 216.656C108.141 218.292 101.62 221.271 97.5886 223.818C103.438 222.396 109.146 225.01 110.979 227.974C107.198 232.984 97.2136 235.281 90.7032 229.63C85.0053 234.766 79.323 241.792 75.297 248.615C76.0782 248.089 77.2657 247.26 78.1668 246.891C79.5105 246.333 80.8699 246.021 82.1824 245.922C85.1251 245.703 87.8543 246.573 89.7657 248.307C88.4324 253.781 81.0365 259.76 71.4011 256.552C68.474 263.312 65.9688 271.432 64.8282 279.062C64.9636 278.833 65.1095 278.604 65.2605 278.385C67.8438 274.505 71.474 272.245 74.8751 271.995C75.4532 271.953 76.0157 271.969 76.5782 272.042C78.1668 276 77.6303 281.437 74.8282 286.042C72.3126 290.182 68.5938 292.625 65.073 292.885C64.6563 292.917 64.2449 292.917 63.8334 292.885C63.8438 295.036 63.922 297.203 64.0886 299.385C64.4115 303.729 65.0365 307.984 65.9376 312.125C66.0834 311.099 66.3126 310.062 66.6199 309.031C68.3282 303.411 72.0834 299.49 76.0261 298.63C78.724 302.021 79.7397 307.656 78.2709 313.271C76.8126 318.875 73.2813 322.922 69.4168 324.042C71.4793 329.635 74.073 334.932 77.1303 339.844C76.2449 336.604 75.9793 328.552 82.0886 323.224C91.0209 330.224 91.3543 343.562 84.9897 350.495C88.0886 354.052 91.474 357.297 95.0938 360.187C91.9845 354.609 91.1615 343.578 96.3543 339.156C108.75 343.172 109.875 359.661 104.401 366.51C109.359 369.333 114.63 371.547 120.146 373.052C119.021 371.318 118.13 369.229 117.599 366.896C116.349 361.344 117.505 355.979 120.229 352.979C123.932 354.151 127.339 358.12 128.776 363.521C129.859 367.594 129.599 371.63 128.318 374.724C128.599 374.745 129.307 374.755 130.865 374.646C131.615 374.589 132.266 375.151 132.323 375.901C132.375 376.646 131.813 377.297 131.063 377.354C129.729 377.453 128.74 377.479 128.104 377.432C123.724 386.63 115.542 390.307 106.531 387.516C107.203 379.026 113.672 375.901 118.958 375.542C113.24 373.937 107.787 371.604 102.651 368.635C95.8282 376.568 85.8022 378.25 77.9376 373.005C78.4949 366.99 84.1095 361.187 93.6824 362.531C90.0001 359.62 86.3386 355.911 83.172 352.333C71.8751 355.958 63.6407 352.552 59.7657 345.464C66.1303 340.281 71.7136 340.385 75.2709 341.964C71.8751 336.687 69.1043 330.948 66.8282 324.885C54.5678 325.036 47.4793 313.62 49.5365 306.844Z" fill="#823C0C"/>
<path d="M49.5365 304.792C51.9636 303.771 60.1615 304.25 63.323 310.531C62.5313 306.661 61.6772 301.568 61.3751 297.531C61.2032 295.141 61.1147 292.771 61.1147 290.417C57.3855 289.688 53.6563 286.182 51.6668 281.036C49.6407 275.755 50.0105 270.219 52.2709 266.755C56.0938 267.245 60.0209 270.568 62.2136 275.667C62.2345 275.714 62.2501 275.75 62.2657 275.792C63.5313 267.865 65.797 260.302 68.9324 253.292C65.8386 252.036 63.0105 248.672 61.6772 244.141C60.2084 239.151 60.948 234.151 63.2605 231.203C66.7136 231.995 70.0626 235.38 71.6876 240.219C72.3438 242.156 72.6511 244.109 72.6459 245.958C77.0886 238.135 82.698 231.198 89.2293 225.458C87.2397 222.901 86.2553 218.859 86.8699 214.604C87.5574 209.771 90.1147 206.01 93.1928 204.708C95.7865 207.052 97.2865 211.474 96.7865 216.26C96.6355 217.693 96.3178 219.042 95.8699 220.266C100.745 216.891 106.021 214.13 111.62 212.083C112.636 208.859 115.396 205.964 119.151 204.641C120.224 204.255 121.302 204.036 122.354 203.958C125.354 203.734 128.13 204.688 129.979 206.531C129.37 210.167 126.589 213.635 122.568 215.266C121.339 215.771 120.094 216.057 118.891 216.146C116.557 216.318 114.37 215.76 112.646 214.599C108.141 216.24 101.62 219.219 97.5886 221.766C103.438 220.339 109.146 222.953 110.979 225.922C107.198 230.932 97.2136 233.229 90.7032 227.573C85.0053 232.708 79.323 239.734 75.297 246.563C76.0782 246.036 77.2657 245.203 78.1668 244.833C79.5105 244.281 80.8699 243.964 82.1824 243.865C85.1251 243.651 87.8543 244.516 89.7657 246.255C88.4324 251.729 81.0365 257.703 71.4011 254.5C68.474 261.26 65.9688 269.375 64.8282 277.005C64.9636 276.776 65.1095 276.552 65.2605 276.328C67.8438 272.453 71.474 270.188 74.8751 269.943C75.4532 269.896 76.0157 269.911 76.5782 269.984C78.1668 273.948 77.6303 279.38 74.8282 283.984C72.3126 288.125 68.5938 290.568 65.073 290.833C64.6563 290.865 64.2449 290.865 63.8334 290.828C63.8438 292.979 63.922 295.146 64.0886 297.328C64.4115 301.672 65.0365 305.927 65.9376 310.068C66.0834 309.047 66.3126 308.01 66.6199 306.979C68.3282 301.354 72.0834 297.432 76.0261 296.573C78.724 299.969 79.7397 305.604 78.2709 311.214C76.8126 316.818 73.2813 320.865 69.4168 321.984C71.4793 327.578 74.073 332.88 77.1303 337.792C76.2449 334.552 75.9793 326.495 82.0886 321.167C91.0209 328.167 91.3543 341.505 84.9897 348.438C88.0886 351.995 91.474 355.245 95.0938 358.13C91.9845 352.557 91.1615 341.521 96.3543 337.099C108.75 341.115 109.875 357.604 104.401 364.453C109.359 367.281 114.63 369.495 120.146 371C119.021 369.266 118.13 367.172 117.599 364.839C116.349 359.292 117.505 353.922 120.229 350.922C123.932 352.094 127.339 356.068 128.776 361.469C129.859 365.536 129.599 369.573 128.318 372.672C128.599 372.688 129.307 372.703 130.865 372.589C131.615 372.536 132.266 373.094 132.323 373.844C132.375 374.594 131.813 375.24 131.063 375.297C129.729 375.396 128.74 375.422 128.104 375.38C123.724 384.578 115.542 388.255 106.531 385.458C107.203 376.974 113.672 373.849 118.958 373.49C113.24 371.88 107.787 369.547 102.651 366.578C95.8282 374.51 85.8022 376.198 77.9376 370.948C78.4949 364.932 84.1095 359.135 93.6824 360.474C90.0001 357.563 86.3386 353.854 83.172 350.281C71.8751 353.901 63.6407 350.5 59.7657 343.411C66.1303 338.229 71.7136 338.333 75.2709 339.911C71.8751 334.63 69.1043 328.896 66.8282 322.828C54.5678 322.984 47.4793 311.563 49.5365 304.792Z" fill="#CC6A27"/>
<path d="M239.121 306.844C236.699 305.823 228.496 306.302 225.334 312.583C226.126 308.714 226.98 303.625 227.282 299.583C227.459 297.193 227.542 294.823 227.542 292.469C231.277 291.74 235.006 288.24 236.99 283.089C239.016 277.812 238.647 272.276 236.391 268.807C232.563 269.302 228.636 272.625 226.443 277.724C226.428 277.766 226.407 277.807 226.391 277.849C225.131 269.922 222.86 262.354 219.725 255.349C222.818 254.094 225.647 250.724 226.98 246.193C228.454 241.208 227.714 236.203 225.402 233.255C221.949 234.052 218.6 237.437 216.97 242.276C216.318 244.208 216.011 246.167 216.016 248.016C211.568 240.193 205.964 233.25 199.433 227.516C201.412 224.953 202.402 220.917 201.792 216.661C201.1 211.828 198.548 208.062 195.459 206.766C192.865 209.104 191.365 213.531 191.871 218.318C192.022 219.75 192.339 221.099 192.792 222.323C187.917 218.943 182.641 216.182 177.037 214.135C176.027 210.917 173.261 208.016 169.511 206.693C168.433 206.312 167.355 206.089 166.298 206.01C163.303 205.792 160.527 206.745 158.678 208.589C159.292 212.219 162.068 215.687 166.089 217.323C167.318 217.823 168.563 218.109 169.766 218.198C172.095 218.375 174.292 217.818 176.011 216.656C180.522 218.292 187.037 221.271 191.063 223.818C185.225 222.396 179.516 225.01 177.683 227.974C181.464 232.984 191.443 235.281 197.959 229.63C203.652 234.766 209.334 241.792 213.36 248.615C212.584 248.089 211.397 247.26 210.49 246.891C209.147 246.333 207.787 246.016 206.47 245.922C203.532 245.703 200.803 246.573 198.891 248.307C200.225 253.781 207.626 259.76 217.261 256.552C220.183 263.312 222.688 271.432 223.824 279.062C223.693 278.833 223.548 278.609 223.397 278.385C220.818 274.505 217.178 272.245 213.782 271.995C213.209 271.953 212.636 271.969 212.079 272.042C210.49 276 211.032 281.437 213.829 286.042C216.35 290.182 220.074 292.625 223.584 292.885C224.001 292.917 224.412 292.917 224.824 292.885C224.813 295.036 224.73 297.203 224.574 299.385C224.251 303.729 223.621 307.984 222.725 312.125C222.568 311.099 222.345 310.062 222.032 309.036C220.334 303.411 216.574 299.49 212.631 298.63C209.933 302.021 208.923 307.656 210.386 313.271C211.85 318.875 215.381 322.922 219.246 324.042C217.178 329.635 214.584 334.932 211.527 339.844C212.412 336.604 212.683 328.552 206.568 323.224C197.636 330.224 197.308 343.562 203.667 350.495C200.563 354.052 197.188 357.297 193.568 360.187C196.678 354.609 197.496 343.578 192.308 339.156C179.912 343.172 178.787 359.661 184.256 366.51C179.298 369.333 174.027 371.547 168.506 373.052C169.641 371.318 170.532 369.229 171.058 366.896C172.308 361.344 171.152 355.979 168.428 352.979C164.725 354.151 161.313 358.12 159.876 363.521C158.798 367.594 159.058 371.63 160.345 374.724C160.058 374.745 159.35 374.755 157.792 374.646C157.048 374.589 156.391 375.151 156.339 375.901C156.287 376.646 156.845 377.297 157.595 377.354H157.6C158.928 377.453 159.923 377.479 160.553 377.432C164.938 386.63 173.115 390.307 182.126 387.516C181.459 379.026 174.985 375.901 169.704 375.542C175.412 373.937 180.876 371.604 186.006 368.635C192.834 376.568 202.86 378.25 210.72 373.005C210.162 366.99 204.548 361.187 194.975 362.531C198.662 359.62 202.318 355.911 205.49 352.333C216.787 355.958 225.022 352.552 228.897 345.464C222.527 340.281 216.949 340.385 213.386 341.964C216.792 336.687 219.558 330.948 221.829 324.885C234.1 325.036 241.173 313.62 239.121 306.844Z" fill="#823C0C"/>
<path d="M239.121 304.792C236.699 303.771 228.496 304.25 225.334 310.531C226.126 306.661 226.98 301.568 227.282 297.531C227.459 295.141 227.542 292.766 227.542 290.417C231.277 289.688 235.006 286.182 236.99 281.031C239.016 275.755 238.647 270.219 236.391 266.755C232.563 267.245 228.636 270.568 226.443 275.667C226.428 275.708 226.407 275.75 226.391 275.792C225.131 267.865 222.86 260.302 219.725 253.292C222.818 252.036 225.647 248.672 226.98 244.141C228.454 239.151 227.714 234.151 225.402 231.203C221.949 231.995 218.6 235.38 216.97 240.219C216.318 242.156 216.011 244.109 216.016 245.958C211.568 238.135 205.964 231.198 199.433 225.458C201.412 222.901 202.402 218.859 201.792 214.604C201.1 209.771 198.548 206.01 195.459 204.708C192.865 207.052 191.365 211.474 191.871 216.26C192.022 217.693 192.339 219.042 192.792 220.266C187.917 216.891 182.641 214.13 177.037 212.083C176.027 208.859 173.261 205.964 169.511 204.635C168.433 204.255 167.355 204.036 166.298 203.958C163.303 203.734 160.527 204.688 158.678 206.531C159.292 210.161 162.068 213.635 166.089 215.266C167.318 215.771 168.563 216.057 169.766 216.146C172.095 216.318 174.292 215.76 176.011 214.599C180.522 216.24 187.037 219.219 191.063 221.766C185.225 220.339 179.516 222.953 177.683 225.922C181.464 230.932 191.443 233.229 197.959 227.573C203.652 232.708 209.334 239.734 213.36 246.563C212.584 246.036 211.397 245.203 210.49 244.833C209.147 244.281 207.787 243.964 206.47 243.865C203.532 243.646 200.803 244.516 198.891 246.255C200.225 251.729 207.626 257.703 217.261 254.5C220.183 261.26 222.688 269.375 223.824 277.005C223.693 276.776 223.548 276.552 223.397 276.328C220.818 272.453 217.178 270.188 213.782 269.943C213.209 269.896 212.636 269.911 212.079 269.984C210.49 273.948 211.032 279.38 213.829 283.984C216.35 288.125 220.074 290.568 223.584 290.833C224.001 290.865 224.412 290.865 224.824 290.828C224.813 292.979 224.73 295.146 224.574 297.328C224.251 301.672 223.621 305.927 222.725 310.068C222.568 309.047 222.345 308.01 222.032 306.979C220.334 301.354 216.574 297.432 212.631 296.573C209.933 299.969 208.923 305.599 210.386 311.214C211.85 316.818 215.381 320.865 219.246 321.984C217.178 327.578 214.584 332.88 211.527 337.792C212.412 334.552 212.683 326.495 206.568 321.167C197.636 328.167 197.308 341.505 203.667 348.438C200.563 351.995 197.188 355.245 193.568 358.13C196.678 352.557 197.496 341.521 192.308 337.099C179.912 341.115 178.787 357.604 184.256 364.453C179.298 367.281 174.027 369.495 168.506 371C169.641 369.266 170.532 367.172 171.058 364.839C172.308 359.292 171.152 353.922 168.428 350.922C164.725 352.094 161.313 356.063 159.876 361.464C158.798 365.536 159.058 369.573 160.345 372.672C160.058 372.688 159.35 372.703 157.792 372.589C157.048 372.536 156.391 373.094 156.339 373.844C156.287 374.594 156.845 375.24 157.595 375.297H157.6C158.928 375.396 159.923 375.422 160.553 375.38C164.938 384.578 173.115 388.255 182.126 385.458C181.459 376.974 174.985 373.849 169.704 373.49C175.412 371.88 180.876 369.547 186.006 366.578C192.834 374.51 202.86 376.198 210.72 370.948C210.162 364.932 204.548 359.135 194.975 360.474C198.662 357.563 202.318 353.854 205.49 350.281C216.787 353.901 225.022 350.5 228.897 343.411C222.527 338.224 216.949 338.333 213.386 339.911C216.792 334.63 219.558 328.896 221.829 322.828C234.1 322.984 241.173 311.563 239.121 304.792Z" fill="#CC6A27"/>
<mask id="mask2_319_331" style="mask-type:luminance" maskUnits="userSpaceOnUse" x="10" y="0" width="148" height="163">
<path d="M10.666 0.416687H157.333V162.667H10.666V0.416687Z" fill="white"/>
</mask>
<g mask="url(#mask2_319_331)">
<path d="M156.104 162.276L78.9323 0.416687H11.0469L91.0938 162.276H156.104Z" fill="#41ABE5"/>
</g>
<mask id="mask3_319_331" style="mask-type:luminance" maskUnits="userSpaceOnUse" x="243" y="357" width="2" height="1">
<path d="M243.568 357.12H244.042V357.495H243.568V357.12Z" fill="white"/>
</mask>
<g mask="url(#mask3_319_331)">
<mask id="mask4_319_331" style="mask-type:luminance" maskUnits="userSpaceOnUse" x="243" y="357" width="2" height="1">
<path d="M244.015 357.344C243.12 357.74 243.916 357.146 243.916 357.146Z" fill="white"/>
</mask>
<g mask="url(#mask4_319_331)">
<mask id="mask5_319_331" style="mask-type:luminance" maskUnits="userSpaceOnUse" x="-28" y="-42" width="335" height="502">
<path d="M306.9 -41.8H-27.9004V459.8H306.9V-41.8Z" fill="black" fill-opacity="0.01"/>
</mask>
<g mask="url(#mask5_319_331)">
<mask id="mask6_319_331" style="mask-type:luminance" maskUnits="userSpaceOnUse" x="242" y="356" width="4" height="3">
<path d="M245.333 356H242.666V358.667H245.333V356Z" fill="white"/>
</mask>
<g mask="url(#mask6_319_331)">
<mask id="mask7_319_331" style="mask-type:luminance" maskUnits="userSpaceOnUse" x="243" y="357" width="2" height="1">
<path d="M243.566 357.12H244.04V357.495H243.566V357.12Z" fill="white"/>
</mask>
<g mask="url(#mask7_319_331)">
<mask id="mask8_319_331" style="mask-type:luminance" maskUnits="userSpaceOnUse" x="243" y="357" width="2" height="1">
<path d="M244.013 357.344C243.118 357.74 243.914 357.146 243.914 357.146Z" fill="white"/>
</mask>
<g mask="url(#mask8_319_331)">
<path d="M340.377 -91.96H-61.3828V509.96H340.377V-91.96Z" fill="#0571D3"/>
</g>
</g>
</g>
</g>
</g>
</g>
</svg>
