<svg width="279" height="418" viewBox="0 0 279 418" fill="none" xmlns="http://www.w3.org/2000/svg">
<mask id="mask0_319_381" style="mask-type:luminance" maskUnits="userSpaceOnUse" x="128" y="0" width="147" height="163">
<path d="M128 0.416687H274.667V162.667H128V0.416687Z" fill="white"/>
</mask>
<g mask="url(#mask0_319_381)">
<path d="M128.631 162.281L205.798 0.416687H273.683L193.641 162.281H128.631Z" fill="#2980B9"/>
</g>
<path d="M87.3118 162.281H193.947V182.901C198.374 185.01 202.666 187.37 206.791 189.969V159.406C206.791 153.922 202.301 149.432 196.817 149.432H84.4368C78.9525 149.432 74.4629 153.922 74.4629 159.406V189.969C78.5931 187.37 82.8796 185.01 87.3118 182.901V162.281Z" fill="#7F8C8D"/>
<mask id="mask1_319_381" style="mask-type:luminance" maskUnits="userSpaceOnUse" x="16" y="168" width="250" height="249">
<path d="M16.2129 168.188H265.197V416.922H16.2129V168.188Z" fill="white"/>
</mask>
<g mask="url(#mask1_319_381)">
<path d="M206.792 187.271C202.672 184.672 198.38 182.312 193.948 180.203C177.786 172.526 159.714 168.224 140.63 168.224C121.547 168.224 103.474 172.526 87.3125 180.203C82.8802 182.312 78.5885 184.672 74.4635 187.271C39.5 209.281 16.2656 248.214 16.2656 292.578C16.2656 361.255 71.9479 416.932 140.63 416.932C209.318 416.932 264.995 361.255 264.995 292.578C264.995 248.214 241.76 209.281 206.792 187.271Z" fill="#E0E0E2"/>
</g>
<path d="M246.042 292.578C246.042 306.807 243.256 320.615 237.756 333.604C232.449 346.156 224.85 357.427 215.167 367.109C205.485 376.792 194.214 384.391 181.662 389.698C168.667 395.193 154.865 397.979 140.631 397.979C126.402 397.979 112.594 395.193 99.5996 389.698C87.0475 384.391 75.7767 376.792 66.0944 367.109C56.4121 357.427 48.8132 346.156 43.5007 333.604C38.0111 320.615 35.2246 306.807 35.2246 292.578C35.2246 278.349 38.0111 264.547 43.5007 251.552C48.8132 239.005 56.4121 227.729 66.0944 218.052C75.7767 208.37 87.0475 200.771 99.5996 195.458C112.594 189.964 126.402 187.177 140.631 187.177C154.865 187.177 168.667 189.964 181.662 195.458C194.214 200.771 205.485 208.37 215.167 218.052C224.85 227.729 232.449 239.005 237.756 251.552C243.256 264.547 246.042 278.349 246.042 292.578ZM241.844 249.828C236.308 236.745 228.391 225 218.303 214.911C208.214 204.828 196.469 196.906 183.386 191.375C169.85 185.646 155.459 182.745 140.631 182.745C125.803 182.745 111.417 185.646 97.8757 191.375C84.7923 196.906 73.0475 204.828 62.959 214.911C52.8704 225 44.9486 236.745 39.4173 249.828C33.6882 263.37 30.7871 277.755 30.7871 292.578C30.7871 307.406 33.6882 321.792 39.4173 335.333C44.9486 348.417 52.8704 360.161 62.959 370.245C73.0475 380.333 84.7923 388.255 97.8757 393.786C111.417 399.51 125.803 402.417 140.631 402.417C155.459 402.417 169.85 399.51 183.386 393.786C196.469 388.255 208.214 380.333 218.303 370.245C228.391 360.161 236.308 348.417 241.844 335.333C247.574 321.792 250.475 307.406 250.475 292.578C250.475 277.755 247.574 263.37 241.844 249.828Z" fill="#7F8C8D"/>
<path d="M141.656 183.641C81.4837 183.641 32.7129 232.417 32.7129 292.583C32.7129 352.745 81.4837 401.516 141.656 401.516C201.827 401.516 250.598 352.745 250.598 292.583C250.598 232.417 201.827 183.641 141.656 183.641ZM141.656 186.281C156.005 186.281 169.926 189.089 183.031 194.63C195.692 199.984 207.062 207.651 216.822 217.417C226.588 227.177 234.255 238.547 239.614 251.203C245.15 264.307 247.963 278.229 247.963 292.583C247.963 306.932 245.15 320.854 239.614 333.958C234.255 346.615 226.588 357.979 216.822 367.745C207.062 377.51 195.692 385.172 183.031 390.526C169.926 396.068 156.005 398.88 141.656 398.88C127.301 398.88 113.38 396.068 100.275 390.526C87.6191 385.172 76.2494 377.51 66.4837 367.745C56.7181 357.979 49.0514 346.615 43.7025 333.958C38.1556 320.854 35.3483 306.932 35.3483 292.583C35.3483 278.229 38.1556 264.307 43.7025 251.203C49.0514 238.547 56.7181 227.177 66.4837 217.417C76.2494 207.651 87.6191 199.984 100.275 194.63C113.38 189.089 127.301 186.281 141.656 186.281Z" fill="#95A5A6"/>
<path d="M45.8434 306.844C48.2652 305.823 56.4684 306.302 59.6246 312.583C58.833 308.714 57.9788 303.625 57.6819 299.583C57.5048 297.193 57.4163 294.823 57.4163 292.469C53.6819 291.74 49.958 288.24 47.9736 283.089C45.9423 277.812 46.3121 272.276 48.5725 268.807C52.3955 269.302 56.3277 272.625 58.5205 277.724C58.5309 277.766 58.5517 277.807 58.5725 277.849C59.8277 269.922 62.0934 262.354 65.2288 255.349C62.1402 254.094 59.3173 250.724 57.9788 246.193C56.5048 241.208 57.2496 236.203 59.5569 233.255C63.0152 234.052 66.3642 237.432 67.9892 242.276C68.6455 244.208 68.9475 246.167 68.9423 248.016C73.3955 240.193 78.9996 233.25 85.5309 227.516C83.5413 224.953 82.5569 220.917 83.1715 216.656C83.8642 211.828 86.4163 208.062 89.4996 206.766C92.0934 209.104 93.5934 213.526 93.0882 218.312C92.9371 219.75 92.6246 221.099 92.1663 222.323C97.0465 218.943 102.323 216.182 107.921 214.135C108.937 210.917 111.703 208.016 115.453 206.693C116.526 206.312 117.604 206.089 118.661 206.01C121.656 205.786 124.432 206.745 126.281 208.589C125.671 212.219 122.895 215.687 118.875 217.323C117.64 217.823 116.401 218.109 115.187 218.198C112.864 218.37 110.666 217.818 108.948 216.656C104.442 218.292 97.9267 221.271 93.8955 223.818C99.734 222.396 105.442 225.01 107.281 227.974C103.5 232.984 93.5152 235.281 87.0048 229.625C81.3069 234.766 75.6246 241.786 71.5986 248.615C72.3798 248.089 73.5673 247.26 74.4684 246.885C75.8121 246.333 77.1715 246.016 78.4892 245.922C81.4267 245.703 84.1611 246.573 86.0725 248.307C84.734 253.781 77.3382 259.76 67.7027 256.552C64.7757 263.312 62.2757 271.432 61.135 279.062C61.2705 278.833 61.4163 278.604 61.5621 278.38C64.1455 274.505 67.7809 272.245 71.1715 271.995C71.7496 271.953 72.3173 271.969 72.8798 272.042C74.4684 276 73.9319 281.437 71.1298 286.042C68.6142 290.182 64.8902 292.625 61.3746 292.885C60.9632 292.917 60.5465 292.917 60.135 292.885C60.1455 295.036 60.2288 297.203 60.3902 299.385C60.708 303.729 61.3382 307.984 62.2392 312.12C62.385 311.099 62.6142 310.062 62.9267 309.031C64.6298 303.411 68.385 299.484 72.3277 298.63C75.0309 302.021 76.0413 307.656 74.5725 313.271C73.109 318.875 69.5777 322.922 65.7184 324.042C67.7809 329.635 70.3746 334.932 73.4319 339.844C72.5465 336.604 72.2809 328.552 78.3902 323.224C87.3277 330.224 87.6559 343.562 81.2913 350.495C84.3902 354.052 87.7757 357.297 91.3955 360.187C88.2861 354.609 87.4632 343.578 92.6559 339.156C105.052 343.172 106.177 359.661 100.708 366.51C105.661 369.333 110.932 371.547 116.453 373.052C115.323 371.318 114.427 369.229 113.901 366.896C112.651 361.344 113.807 355.979 116.531 352.979C120.239 354.151 123.645 358.12 125.078 363.521C126.166 367.594 125.901 371.63 124.619 374.724C124.906 374.745 125.614 374.755 127.166 374.646C127.911 374.589 128.567 375.151 128.625 375.901C128.677 376.646 128.114 377.297 127.364 377.354C126.031 377.453 125.041 377.479 124.406 377.432C120.031 386.63 111.849 390.307 102.833 387.516C103.505 379.026 109.979 375.901 115.265 375.542C109.541 373.937 104.083 371.599 98.958 368.635C92.1298 376.562 82.1038 378.25 74.2392 373.005C74.7965 366.99 80.4163 361.187 89.984 362.531C86.3017 359.62 82.6402 355.911 79.4736 352.333C68.1715 355.958 59.9371 352.552 56.0621 345.464C62.4319 340.281 68.01 340.385 71.5777 341.964C68.1715 336.687 65.4059 330.948 63.135 324.885C50.8694 325.036 43.7861 313.62 45.8434 306.844Z" fill="#7F8C8D"/>
<path d="M45.8434 304.792C48.2652 303.771 56.4684 304.25 59.6246 310.531C58.833 306.661 57.9788 301.568 57.6819 297.526C57.5048 295.141 57.4163 292.766 57.4163 290.417C53.6819 289.688 49.958 286.182 47.9736 281.031C45.9423 275.755 46.3121 270.219 48.5725 266.755C52.3955 267.245 56.3277 270.568 58.5205 275.667C58.5309 275.708 58.5517 275.75 58.5725 275.792C59.8277 267.865 62.0934 260.302 65.2288 253.292C62.1402 252.036 59.3173 248.672 57.9788 244.141C56.5048 239.151 57.2496 234.146 59.5569 231.198C63.0152 231.995 66.3642 235.38 67.9892 240.219C68.6455 242.156 68.9475 244.109 68.9423 245.958C73.3955 238.135 78.9996 231.198 85.5309 225.458C83.5413 222.901 82.5569 218.859 83.1715 214.604C83.8642 209.771 86.4163 206.01 89.4996 204.708C92.0934 207.052 93.5934 211.474 93.0882 216.26C92.9371 217.693 92.6246 219.042 92.1663 220.266C97.0465 216.891 102.323 214.125 107.921 212.083C108.937 208.859 111.703 205.964 115.453 204.635C116.526 204.255 117.604 204.031 118.661 203.958C121.656 203.734 124.432 204.688 126.281 206.531C125.671 210.161 122.895 213.63 118.875 215.266C117.64 215.771 116.401 216.057 115.187 216.146C112.864 216.318 110.666 215.76 108.948 214.599C104.442 216.24 97.9267 219.214 93.8955 221.766C99.734 220.339 105.442 222.953 107.281 225.917C103.5 230.927 93.5152 233.229 87.0048 227.573C81.3069 232.708 75.6246 239.734 71.5986 246.563C72.3798 246.036 73.5673 245.203 74.4684 244.833C75.8121 244.281 77.1715 243.964 78.4892 243.865C81.4267 243.646 84.1611 244.516 86.0725 246.255C84.734 251.724 77.3382 257.703 67.7027 254.5C64.7757 261.26 62.2757 269.375 61.135 277.005C61.2705 276.776 61.4163 276.552 61.5621 276.328C64.1455 272.448 67.7809 270.188 71.1715 269.938C71.7496 269.896 72.3173 269.911 72.8798 269.984C74.4684 273.943 73.9319 279.38 71.1298 283.984C68.6142 288.125 64.8902 290.568 61.3746 290.828C60.9632 290.859 60.5465 290.859 60.135 290.828C60.1455 292.979 60.2288 295.146 60.3902 297.328C60.708 301.672 61.3382 305.927 62.2392 310.068C62.385 309.047 62.6142 308.01 62.9267 306.979C64.6298 301.354 68.385 297.432 72.3277 296.573C75.0309 299.969 76.0413 305.599 74.5725 311.214C73.109 316.818 69.5777 320.865 65.7184 321.984C67.7809 327.578 70.3746 332.875 73.4319 337.792C72.5465 334.552 72.2809 326.495 78.3902 321.167C87.3277 328.167 87.6559 341.505 81.2913 348.438C84.3902 351.995 87.7757 355.245 91.3955 358.13C88.2861 352.557 87.4632 341.521 92.6559 337.099C105.052 341.115 106.177 357.604 100.708 364.453C105.661 367.281 110.932 369.495 116.453 371C115.323 369.266 114.427 367.172 113.901 364.839C112.651 359.292 113.807 353.922 116.531 350.922C120.239 352.094 123.645 356.063 125.078 361.464C126.166 365.536 125.901 369.573 124.619 372.672C124.906 372.688 125.614 372.703 127.166 372.589C127.911 372.536 128.567 373.094 128.625 373.844C128.677 374.594 128.114 375.24 127.364 375.297C126.031 375.396 125.041 375.422 124.406 375.38C120.031 384.578 111.849 388.255 102.833 385.458C103.505 376.974 109.979 373.849 115.265 373.49C109.541 371.88 104.083 369.547 98.958 366.578C92.1298 374.51 82.1038 376.198 74.2392 370.948C74.7965 364.932 80.4163 359.135 89.984 360.474C86.3017 357.563 82.6402 353.854 79.4736 350.281C68.1715 353.901 59.9371 350.5 56.0621 343.411C62.4319 338.224 68.01 338.333 71.5777 339.911C68.1715 334.63 65.4059 328.896 63.135 322.828C50.8694 322.984 43.7861 311.563 45.8434 304.792Z" fill="#95A5A6"/>
<path d="M235.423 306.844C232.996 305.828 224.792 306.302 221.636 312.583C222.423 308.714 223.282 303.625 223.579 299.583C223.756 297.193 223.839 294.823 223.839 292.469C227.574 291.74 231.303 288.24 233.287 283.089C235.318 277.812 234.943 272.276 232.683 268.807C228.86 269.302 224.933 272.625 222.74 277.724C222.725 277.766 222.704 277.807 222.688 277.849C221.428 269.922 219.162 262.354 216.027 255.349C219.121 254.094 221.943 250.724 223.282 246.193C224.751 241.208 224.011 236.203 221.699 233.255C218.246 234.052 214.902 237.437 213.266 242.276C212.615 244.208 212.308 246.167 212.313 248.016C207.865 240.193 202.261 233.25 195.73 227.516C197.714 224.953 198.699 220.917 198.089 216.661C197.402 211.828 194.844 208.068 191.761 206.766C189.167 209.109 187.667 213.531 188.167 218.318C188.324 219.75 188.636 221.099 189.089 222.323C184.214 218.948 178.938 216.182 173.339 214.141C172.324 210.917 169.558 208.021 165.808 206.693C164.73 206.312 163.652 206.089 162.6 206.01C159.6 205.792 156.829 206.745 154.98 208.589C155.589 212.219 158.365 215.687 162.386 217.323C163.615 217.823 164.865 218.115 166.068 218.203C168.397 218.375 170.594 217.818 172.308 216.656C176.818 218.292 183.334 221.271 187.365 223.818C181.522 222.396 175.813 225.01 173.98 227.974C177.761 232.984 187.74 235.286 194.251 229.63C199.949 234.766 205.631 241.792 209.657 248.615C208.881 248.094 207.693 247.26 206.787 246.891C205.449 246.333 204.084 246.021 202.772 245.922C199.834 245.703 197.1 246.573 195.188 248.307C196.527 253.781 203.923 259.76 213.553 256.557C216.48 263.312 218.985 271.432 220.126 279.062C219.99 278.833 219.844 278.609 219.699 278.385C217.11 274.505 213.48 272.245 210.084 271.995C209.511 271.953 208.938 271.969 208.381 272.042C206.787 276 207.329 281.437 210.126 286.042C212.647 290.182 216.371 292.625 219.881 292.885C220.298 292.917 220.714 292.917 221.126 292.885C221.115 295.036 221.032 297.203 220.871 299.385C220.548 303.729 219.923 307.984 219.016 312.125C218.876 311.099 218.647 310.062 218.329 309.036C216.626 303.411 212.876 299.49 208.933 298.63C206.23 302.021 205.219 307.656 206.683 313.271C208.152 318.875 211.678 322.922 215.542 324.042C213.48 329.635 210.881 334.932 207.829 339.844C208.709 336.604 208.975 328.552 202.865 323.224C193.933 330.224 193.605 343.562 199.969 350.495C196.865 354.052 193.485 357.297 189.865 360.187C192.98 354.609 193.792 343.578 188.605 339.156C176.209 343.172 175.084 359.661 180.553 366.51C175.6 369.333 170.324 371.547 164.808 373.052C165.938 371.318 166.829 369.229 167.355 366.896C168.61 361.344 167.449 355.979 164.73 352.979C161.022 354.151 157.615 358.12 156.183 363.521C155.094 367.594 155.36 371.63 156.647 374.724C156.355 374.745 155.647 374.755 154.089 374.646C153.344 374.589 152.693 375.151 152.636 375.901C152.584 376.646 153.147 377.297 153.891 377.354C155.23 377.453 156.219 377.479 156.855 377.432C161.235 386.63 169.412 390.307 178.423 387.516C177.756 379.026 171.282 375.901 165.996 375.542C171.714 373.937 177.178 371.604 182.303 368.635C189.131 376.568 199.157 378.25 207.016 373.005C206.459 366.99 200.844 361.187 191.277 362.531C194.959 359.62 198.615 355.911 201.782 352.333C213.084 355.958 221.318 352.552 225.193 345.464C218.829 340.281 213.251 340.391 209.683 341.964C213.089 336.687 215.855 330.953 218.126 324.885C230.391 325.036 237.475 313.62 235.423 306.844Z" fill="#7F8C8D"/>
<path d="M235.423 304.792C232.996 303.771 224.792 304.25 221.636 310.531C222.423 306.661 223.282 301.568 223.579 297.531C223.756 295.141 223.839 292.771 223.839 290.417C227.574 289.688 231.303 286.182 233.287 281.036C235.318 275.755 234.943 270.219 232.683 266.755C228.86 267.245 224.933 270.568 222.74 275.667C222.725 275.714 222.704 275.75 222.688 275.792C221.428 267.865 219.162 260.302 216.027 253.292C219.121 252.036 221.943 248.672 223.282 244.141C224.751 239.151 224.011 234.151 221.699 231.203C218.246 231.995 214.902 235.38 213.266 240.219C212.615 242.156 212.308 244.109 212.313 245.958C207.865 238.135 202.261 231.198 195.73 225.458C197.714 222.901 198.699 218.859 198.089 214.604C197.402 209.776 194.844 206.01 191.761 204.708C189.167 207.052 187.667 211.474 188.167 216.26C188.324 217.693 188.636 219.042 189.089 220.266C184.214 216.891 178.938 214.13 173.339 212.083C172.324 208.859 169.558 205.964 165.808 204.641C164.73 204.26 163.652 204.036 162.6 203.958C159.6 203.734 156.829 204.688 154.98 206.531C155.589 210.167 158.365 213.635 162.386 215.271C163.615 215.771 164.865 216.057 166.068 216.146C168.397 216.318 170.594 215.76 172.308 214.599C176.818 216.24 183.334 219.219 187.365 221.766C181.522 220.339 175.813 222.953 173.98 225.922C177.761 230.932 187.74 233.229 194.251 227.573C199.949 232.708 205.631 239.734 209.657 246.563C208.881 246.036 207.693 245.203 206.787 244.833C205.449 244.281 204.084 243.964 202.772 243.865C199.834 243.651 197.1 244.516 195.188 246.255C196.527 251.729 203.923 257.703 213.553 254.5C216.48 261.26 218.985 269.375 220.126 277.005C219.99 276.776 219.844 276.552 219.699 276.328C217.11 272.453 213.48 270.188 210.084 269.943C209.511 269.896 208.938 269.911 208.381 269.984C206.787 273.948 207.329 279.38 210.126 283.99C212.647 288.125 216.371 290.568 219.881 290.833C220.298 290.865 220.714 290.865 221.126 290.828C221.115 292.979 221.032 295.146 220.871 297.328C220.548 301.672 219.923 305.927 219.016 310.068C218.876 309.047 218.647 308.01 218.329 306.979C216.626 301.354 212.876 297.432 208.933 296.573C206.23 299.969 205.219 305.604 206.683 311.214C208.152 316.818 211.678 320.865 215.542 321.984C213.48 327.578 210.881 332.875 207.829 337.792C208.709 334.552 208.975 326.495 202.865 321.167C193.933 328.167 193.605 341.505 199.969 348.438C196.865 351.995 193.485 355.245 189.865 358.13C192.98 352.557 193.792 341.521 188.605 337.099C176.209 341.115 175.084 357.604 180.553 364.453C175.6 367.281 170.324 369.495 164.808 371C165.938 369.266 166.829 367.172 167.355 364.839C168.61 359.292 167.449 353.922 164.73 350.922C161.022 352.094 157.615 356.063 156.183 361.464C155.094 365.536 155.36 369.573 156.647 372.672C156.355 372.688 155.647 372.703 154.089 372.589C153.344 372.536 152.693 373.094 152.636 373.844C152.584 374.594 153.147 375.24 153.891 375.297C155.23 375.396 156.219 375.422 156.855 375.38C161.235 384.578 169.412 388.255 178.423 385.458C177.756 376.974 171.282 373.849 165.996 373.49C171.714 371.88 177.178 369.547 182.303 366.578C189.131 374.51 199.157 376.198 207.016 370.948C206.459 364.932 200.844 359.135 191.277 360.474C194.959 357.563 198.615 353.854 201.782 350.281C213.084 353.901 221.318 350.5 225.193 343.411C218.829 338.224 213.251 338.333 209.683 339.911C213.089 334.63 215.855 328.896 218.126 322.828C230.391 322.984 237.475 311.563 235.423 304.792Z" fill="#95A5A6"/>
<mask id="mask2_319_381" style="mask-type:luminance" maskUnits="userSpaceOnUse" x="6" y="0" width="148" height="163">
<path d="M6.66602 0.416687H153.333V162.667H6.66602V0.416687Z" fill="white"/>
</mask>
<g mask="url(#mask2_319_381)">
<path d="M152.405 162.281L75.2279 0.416687H7.34766L87.3945 162.281H152.405Z" fill="#41ABE5"/>
</g>
<mask id="mask3_319_381" style="mask-type:luminance" maskUnits="userSpaceOnUse" x="249" y="340" width="2" height="1">
<path d="M249.525 340.307H250.067V340.677H249.525V340.307Z" fill="white"/>
</mask>
<g mask="url(#mask3_319_381)">
<mask id="mask4_319_381" style="mask-type:luminance" maskUnits="userSpaceOnUse" x="249" y="340" width="2" height="1">
<path d="M250.041 340.526C249.041 340.927 249.843 340.328 249.843 340.328Z" fill="white"/>
</mask>
<g mask="url(#mask4_319_381)">
<mask id="mask5_319_381" style="mask-type:luminance" maskUnits="userSpaceOnUse" x="-28" y="-42" width="335" height="502">
<path d="M306.9 -41.8H-27.9004V459.8H306.9V-41.8Z" fill="black" fill-opacity="0.01"/>
</mask>
<g mask="url(#mask5_319_381)">
<mask id="mask6_319_381" style="mask-type:luminance" maskUnits="userSpaceOnUse" x="249" y="340" width="2" height="2">
<path d="M250.665 340H249.332V341.333H250.665V340Z" fill="white"/>
</mask>
<g mask="url(#mask6_319_381)">
<mask id="mask7_319_381" style="mask-type:luminance" maskUnits="userSpaceOnUse" x="249" y="340" width="2" height="1">
<path d="M249.525 340.318H250.067V340.677H249.525V340.318Z" fill="white"/>
</mask>
<g mask="url(#mask7_319_381)">
<mask id="mask8_319_381" style="mask-type:luminance" maskUnits="userSpaceOnUse" x="249" y="340" width="2" height="1">
<path d="M250.041 340.526C249.041 340.927 249.843 340.328 249.843 340.328Z" fill="white"/>
</mask>
<g mask="url(#mask8_319_381)">
<path d="M340.379 -91.96H-61.3809V509.96H340.379V-91.96Z" fill="#0571D3"/>
</g>
</g>
</g>
</g>
</g>
</g>
</svg>
