<svg width="279" height="418" viewBox="0 0 279 418" fill="none" xmlns="http://www.w3.org/2000/svg">
<g clip-path="url(#clip0_319_281)">
<mask id="mask0_319_281" style="mask-type:luminance" maskUnits="userSpaceOnUse" x="122" y="0" width="148" height="164">
<path d="M122.666 0.416687H269.333V164H122.666V0.416687Z" fill="white"/>
</mask>
<g mask="url(#mask0_319_281)">
<path d="M122.838 163.828L200.76 0.416687H269.301L188.473 163.828H122.838Z" fill="#2980B9"/>
</g>
<path d="M81.1204 163.828H188.787V184.646C193.261 186.776 197.594 189.161 201.761 191.781V160.927C201.761 155.391 197.23 150.859 191.688 150.859H78.2194C72.6777 150.859 68.1465 155.391 68.1465 160.927V191.781C72.3132 189.161 76.6413 186.776 81.1204 184.646V163.828Z" fill="#DD8300"/>
<mask id="mask1_319_281" style="mask-type:luminance" maskUnits="userSpaceOnUse" x="9" y="169" width="252" height="248">
<path d="M9.33398 169.797H260.6V416.922H9.33398V169.797Z" fill="white"/>
</mask>
<g mask="url(#mask1_319_281)">
<path d="M201.761 189.057C197.594 186.437 193.261 184.052 188.787 181.927C172.469 174.172 154.219 169.833 134.954 169.833C115.688 169.833 97.4329 174.172 81.1204 181.927C76.6413 184.052 72.3132 186.437 68.1465 189.057C32.8444 211.276 9.38086 250.589 9.38086 295.375C9.38086 364.708 65.5996 420.922 134.954 420.922C204.303 420.922 260.521 364.708 260.521 295.375C260.521 250.589 237.063 211.276 201.761 189.057Z" fill="#F9C126"/>
</g>
<path d="M241.385 295.375C241.385 309.74 238.572 323.677 233.02 336.792C227.661 349.464 219.989 360.844 210.213 370.62C200.437 380.396 189.051 388.068 176.38 393.427C163.26 398.974 149.322 401.786 134.952 401.786C120.583 401.786 106.645 398.974 93.5254 393.427C80.8535 388.068 69.4681 380.396 59.6921 370.62C49.916 360.844 42.2441 349.464 36.8796 336.792C31.3327 323.677 28.5202 309.74 28.5202 295.375C28.5202 281.01 31.3327 267.073 36.8796 253.958C42.2441 241.286 49.916 229.906 59.6921 220.13C69.4681 210.359 80.8535 202.687 93.5254 197.328C106.645 191.781 120.583 188.969 134.952 188.969C149.322 188.969 163.26 191.781 176.38 197.328C189.051 202.687 200.437 210.359 210.213 220.13C219.989 229.906 227.661 241.286 233.02 253.958C238.572 267.073 241.385 281.01 241.385 295.375ZM237.145 252.214C231.562 239.01 223.562 227.151 213.38 216.969C203.192 206.781 191.333 198.786 178.124 193.203C164.447 187.422 149.926 184.49 134.952 184.49C119.979 184.49 105.452 187.422 91.7806 193.203C78.5723 198.786 66.7129 206.781 56.5254 216.969C46.3379 227.151 38.3431 239.01 32.7546 252.214C26.9733 265.885 24.041 280.406 24.041 295.375C24.041 310.344 26.9733 324.865 32.7546 338.536C38.3431 351.745 46.3379 363.604 56.5254 373.786C66.7129 383.969 78.5723 391.964 91.7806 397.552C105.452 403.333 119.979 406.266 134.952 406.266C149.926 406.266 164.447 403.333 178.124 397.552C191.333 391.964 203.192 383.969 213.38 373.786C223.562 363.604 231.562 351.745 237.145 338.536C242.932 324.865 245.864 310.344 245.864 295.375C245.864 280.406 242.932 265.885 237.145 252.214Z" fill="#BC6F0A"/>
<path d="M135.99 185.396C75.2344 185.396 25.9844 234.635 25.9844 295.375C25.9844 356.12 75.2344 405.354 135.99 405.354C196.745 405.354 245.995 356.12 245.995 295.375C245.995 234.635 196.745 185.396 135.99 185.396ZM135.99 188.057C150.484 188.057 164.542 190.896 177.771 196.49C190.552 201.896 202.031 209.635 211.891 219.49C221.75 229.349 229.49 240.823 234.896 253.604C240.495 266.833 243.328 280.885 243.328 295.375C243.328 309.865 240.495 323.922 234.896 337.151C229.49 349.927 221.75 361.401 211.891 371.26C202.031 381.115 190.552 388.854 177.771 394.26C164.542 399.854 150.484 402.693 135.99 402.693C121.5 402.693 107.443 399.854 94.2083 394.26C81.4271 388.854 69.9479 381.115 60.0885 371.26C50.2292 361.401 42.4896 349.927 37.0833 337.151C31.4896 323.922 28.651 309.865 28.651 295.375C28.651 280.885 31.4896 266.833 37.0833 253.604C42.4896 240.823 50.2292 229.349 60.0885 219.49C69.9479 209.635 81.4271 201.896 94.2083 196.49C107.443 190.896 121.5 188.057 135.99 188.057Z" fill="#F39C12"/>
<path d="M39.2455 309.776C41.6882 308.75 49.9747 309.229 53.1622 315.573C52.3653 311.667 51.5007 306.526 51.1987 302.448C51.0216 300.036 50.933 297.641 50.933 295.266C47.1622 294.526 43.3966 290.995 41.3966 285.797C39.3445 280.469 39.7195 274.875 42.0007 271.38C45.8653 271.875 49.8289 275.229 52.0424 280.375C52.058 280.422 52.0789 280.464 52.0945 280.505C53.3705 272.5 55.657 264.865 58.8237 257.786C55.6987 256.521 52.8497 253.12 51.5007 248.547C50.0164 243.51 50.7612 238.464 53.0945 235.484C56.5841 236.286 59.9643 239.703 61.6101 244.589C62.2664 246.542 62.5789 248.521 62.5737 250.385C67.0632 242.484 72.7247 235.479 79.3185 229.688C77.3132 227.104 76.3185 223.026 76.933 218.729C77.631 213.854 80.2143 210.052 83.3237 208.74C85.9435 211.104 87.4591 215.568 86.9539 220.401C86.7976 221.849 86.4799 223.208 86.0216 224.448C90.9435 221.036 96.2716 218.25 101.928 216.182C102.949 212.932 105.74 210.005 109.527 208.667C110.615 208.281 111.704 208.057 112.766 207.979C115.798 207.755 118.6 208.719 120.464 210.583C119.85 214.245 117.042 217.75 112.985 219.401C111.74 219.906 110.485 220.193 109.266 220.286C106.912 220.458 104.699 219.896 102.964 218.724C98.4122 220.38 91.8341 223.385 87.7612 225.958C93.6622 224.521 99.4226 227.161 101.282 230.151C97.4591 235.214 87.381 237.531 80.808 231.823C75.0528 237.005 69.3185 244.099 65.256 250.99C66.0372 250.458 67.2403 249.62 68.1466 249.245C69.506 248.688 70.8757 248.37 72.2091 248.271C75.1726 248.052 77.933 248.927 79.8653 250.682C78.5112 256.208 71.0476 262.245 61.3185 259.005C58.3653 265.828 55.8341 274.026 54.683 281.729C54.8237 281.495 54.9695 281.271 55.1153 281.042C57.7247 277.13 61.3966 274.844 64.8237 274.594C65.407 274.552 65.9799 274.568 66.5424 274.641C68.1518 278.641 67.6049 284.125 64.7768 288.776C62.2351 292.953 58.4799 295.422 54.9278 295.688C54.5112 295.719 54.0893 295.719 53.6778 295.682C53.6882 297.854 53.7716 300.042 53.933 302.245C54.256 306.63 54.8914 310.927 55.8028 315.104C55.9487 314.073 56.1778 313.026 56.4955 311.99C58.2143 306.313 62.006 302.349 65.9903 301.484C68.7143 304.906 69.7351 310.599 68.256 316.266C66.7768 321.922 63.2143 326.005 59.308 327.135C61.3966 332.786 64.0164 338.135 67.0997 343.094C66.2091 339.823 65.9382 331.693 72.1101 326.313C81.131 333.38 81.4643 346.844 75.0372 353.844C78.1674 357.432 81.5789 360.714 85.2351 363.63C82.0997 358 81.2716 346.859 86.5112 342.396C99.0268 346.448 100.167 363.099 94.6414 370.01C99.6414 372.865 104.969 375.099 110.542 376.62C109.397 374.87 108.501 372.755 107.964 370.401C106.704 364.797 107.871 359.38 110.621 356.354C114.365 357.536 117.803 361.542 119.251 366.995C120.344 371.104 120.084 375.182 118.782 378.307C119.074 378.328 119.787 378.339 121.36 378.224C122.115 378.172 122.772 378.734 122.829 379.495C122.881 380.25 122.313 380.906 121.558 380.964C120.214 381.063 119.209 381.083 118.574 381.042C114.152 390.328 105.891 394.042 96.7924 391.219C97.4643 382.651 104.001 379.495 109.339 379.135C103.568 377.51 98.0528 375.156 92.8757 372.156C85.9799 380.167 75.8549 381.865 67.9174 376.573C68.4799 370.495 74.1518 364.641 83.8132 365.995C80.0945 363.057 76.4018 359.313 73.2039 355.703C61.7924 359.359 53.4799 355.922 49.5632 348.766C55.9955 343.536 61.6257 343.641 65.2247 345.234C61.7924 339.906 59.0007 334.115 56.7039 327.99C44.3185 328.146 37.1674 316.615 39.2455 309.776Z" fill="#BC6F0A"/>
<path d="M39.2455 307.703C41.6882 306.672 49.9747 307.156 53.1622 313.5C52.3653 309.589 51.5007 304.448 51.1987 300.375C51.0216 297.958 50.933 295.568 50.933 293.188C47.1622 292.453 43.3966 288.917 41.3966 283.719C39.3445 278.391 39.7195 272.802 42.0007 269.302C45.8653 269.797 49.8289 273.156 52.0424 278.302C52.058 278.344 52.0789 278.385 52.0945 278.427C53.3705 270.422 55.657 262.786 58.8237 255.714C55.6987 254.448 52.8497 251.047 51.5007 246.469C50.0164 241.438 50.7612 236.385 53.0945 233.411C56.5841 234.214 59.9643 237.63 61.6101 242.516C62.2664 244.469 62.5789 246.443 62.5737 248.307C67.0632 240.411 72.7247 233.406 79.3185 227.615C77.3132 225.026 76.3185 220.953 76.933 216.651C77.631 211.776 80.2143 207.979 83.3237 206.661C85.9435 209.031 87.4591 213.495 86.9539 218.328C86.7976 219.771 86.4799 221.135 86.0216 222.37C90.9435 218.964 96.2716 216.172 101.928 214.109C102.949 210.854 105.74 207.927 109.527 206.594C110.615 206.208 111.704 205.984 112.766 205.906C115.798 205.682 118.6 206.646 120.464 208.505C119.85 212.172 117.042 215.672 112.985 217.323C111.74 217.828 110.485 218.12 109.266 218.208C106.912 218.385 104.699 217.823 102.964 216.651C98.4122 218.302 91.8341 221.313 87.7612 223.88C93.6622 222.443 99.4226 225.083 101.282 228.078C97.4591 233.135 87.381 235.458 80.808 229.745C75.0528 234.932 69.3185 242.026 65.256 248.917C66.0372 248.385 67.2403 247.547 68.1466 247.172C69.506 246.615 70.8757 246.297 72.2091 246.198C75.1726 245.974 77.933 246.854 79.8653 248.604C78.5112 254.13 71.0476 260.167 61.3185 256.932C58.3653 263.755 55.8341 271.953 54.683 279.651C54.8237 279.422 54.9695 279.193 55.1153 278.969C57.7247 275.052 61.3966 272.771 64.8237 272.521C65.407 272.474 65.9799 272.49 66.5424 272.568C68.1518 276.563 67.6049 282.052 64.7768 286.698C62.2351 290.88 58.4799 293.344 54.9278 293.609C54.5112 293.641 54.0893 293.641 53.6778 293.609C53.6882 295.776 53.7716 297.969 53.933 300.172C54.256 304.557 54.8914 308.854 55.8028 313.031C55.9487 312 56.1778 310.953 56.4955 309.911C58.2143 304.234 62.006 300.276 65.9903 299.406C68.7143 302.833 69.7351 308.521 68.256 314.188C66.7768 319.849 63.2143 323.932 59.308 325.063C61.3966 330.708 64.0164 336.057 67.0997 341.021C66.2091 337.75 65.9382 329.615 72.1101 324.234C81.131 331.302 81.4643 344.771 75.0372 351.771C78.1674 355.359 81.5789 358.641 85.2351 361.552C82.0997 355.927 81.2716 344.786 86.5112 340.323C99.0268 344.375 100.167 361.021 94.6414 367.938C99.6414 370.792 104.969 373.026 110.542 374.542C109.397 372.792 108.501 370.682 107.964 368.328C106.704 362.724 107.871 357.307 110.621 354.276C114.365 355.464 117.803 359.469 119.251 364.922C120.344 369.031 120.084 373.109 118.782 376.234C119.074 376.25 119.787 376.266 121.36 376.151C122.115 376.094 122.772 376.661 122.829 377.417C122.881 378.172 122.313 378.828 121.558 378.885C120.214 378.984 119.209 379.01 118.574 378.969C114.152 388.255 105.891 391.964 96.7924 389.146C97.4643 380.573 104.001 377.422 109.339 377.057C103.568 375.438 98.0528 373.078 92.8757 370.083C85.9799 378.089 75.8549 379.792 67.9174 374.495C68.4799 368.422 74.1518 362.568 83.8132 363.922C80.0945 360.979 76.4018 357.24 73.2039 353.625C61.7924 357.286 53.4799 353.849 49.5632 346.693C55.9955 341.458 61.6257 341.568 65.2247 343.156C61.7924 337.828 59.0007 332.036 56.7039 325.917C44.3185 326.068 37.1674 314.542 39.2455 307.703Z" fill="#F39C12"/>
<path d="M230.662 309.776C228.219 308.75 219.932 309.229 216.745 315.573C217.542 311.667 218.406 306.526 218.708 302.448C218.885 300.036 218.974 297.641 218.974 295.266C222.745 294.526 226.51 290.995 228.51 285.797C230.563 280.469 230.182 274.875 227.906 271.38C224.042 271.875 220.078 275.229 217.865 280.375C217.844 280.422 217.828 280.464 217.807 280.505C216.537 272.5 214.25 264.865 211.083 257.786C214.203 256.521 217.052 253.12 218.406 248.547C219.891 243.51 219.146 238.464 216.813 235.484C213.323 236.286 209.943 239.703 208.297 244.589C207.635 246.542 207.328 248.521 207.333 250.385C202.844 242.484 197.182 235.479 190.589 229.688C192.594 227.104 193.589 223.026 192.974 218.729C192.271 213.854 189.693 210.052 186.583 208.74C183.964 211.104 182.448 215.568 182.953 220.401C183.104 221.849 183.427 223.208 183.885 224.448C178.958 221.036 173.635 218.25 167.979 216.182C166.953 212.932 164.162 210.005 160.375 208.667C159.292 208.281 158.198 208.057 157.135 207.979C154.109 207.755 151.307 208.719 149.443 210.583C150.057 214.245 152.859 217.75 156.922 219.401C158.162 219.906 159.422 220.193 160.641 220.286C162.99 220.458 165.208 219.896 166.943 218.724C171.495 220.38 178.073 223.385 182.141 225.958C176.24 224.521 170.479 227.161 168.625 230.151C172.448 235.214 182.526 237.531 189.099 231.823C194.849 237.005 200.589 244.099 204.651 250.99C203.87 250.458 202.667 249.62 201.755 249.245C200.401 248.688 199.026 248.37 197.698 248.271C194.729 248.052 191.969 248.927 190.042 250.682C191.391 256.208 198.859 262.245 208.589 259.005C211.542 265.828 214.068 274.026 215.224 281.729C215.083 281.495 214.938 281.271 214.787 281.042C212.182 277.13 208.51 274.844 205.083 274.594C204.5 274.552 203.927 274.568 203.365 274.641C201.755 278.641 202.297 284.125 205.125 288.776C207.667 292.953 211.427 295.422 214.974 295.688C215.396 295.719 215.818 295.719 216.229 295.682C216.219 297.854 216.135 300.042 215.969 302.245C215.646 306.63 215.016 310.927 214.104 315.104C213.953 314.073 213.724 313.026 213.412 311.99C211.693 306.313 207.901 302.349 203.917 301.484C201.193 304.906 200.172 310.599 201.651 316.266C203.13 321.922 206.688 326.005 210.594 327.135C208.51 332.786 205.891 338.135 202.802 343.094C203.698 339.823 203.964 331.693 197.797 326.313C188.771 333.38 188.443 346.844 194.865 353.844C191.74 357.432 188.323 360.714 184.667 363.63C187.807 358 188.63 346.859 183.396 342.396C170.88 346.448 169.74 363.099 175.266 370.01C170.26 372.865 164.932 375.099 159.365 376.62C160.505 374.87 161.406 372.755 161.938 370.401C163.203 364.797 162.037 359.38 159.287 356.354C155.542 357.536 152.104 361.542 150.651 366.995C149.563 371.104 149.823 375.182 151.12 378.307C150.833 378.328 150.115 378.339 148.547 378.224C147.792 378.172 147.135 378.734 147.078 379.495C147.021 380.25 147.589 380.906 148.344 380.964C149.693 381.063 150.693 381.083 151.333 381.042C155.755 390.328 164.016 394.042 173.115 391.219C172.443 382.651 165.906 379.495 160.568 379.135C166.339 377.51 171.854 375.156 177.031 372.156C183.922 380.167 194.047 381.865 201.99 376.573C201.422 370.495 195.755 364.641 186.089 365.995C189.807 363.057 193.505 359.313 196.703 355.703C208.115 359.359 216.427 355.922 220.339 348.766C213.912 343.536 208.276 343.641 204.677 345.234C208.115 339.906 210.906 334.115 213.203 327.99C225.589 328.146 232.734 316.615 230.662 309.776Z" fill="#BC6F0A"/>
<path d="M230.662 307.703C228.219 306.672 219.932 307.156 216.745 313.5C217.542 309.589 218.406 304.448 218.708 300.375C218.885 297.958 218.974 295.568 218.974 293.188C222.745 292.453 226.51 288.917 228.51 283.719C230.563 278.391 230.182 272.802 227.906 269.302C224.042 269.797 220.078 273.156 217.865 278.302C217.844 278.344 217.828 278.385 217.807 278.427C216.537 270.422 214.25 262.786 211.083 255.714C214.203 254.448 217.052 251.047 218.406 246.469C219.891 241.438 219.146 236.385 216.813 233.411C213.323 234.214 209.943 237.63 208.297 242.516C207.635 244.469 207.328 246.443 207.333 248.307C202.844 240.411 197.182 233.406 190.589 227.615C192.594 225.026 193.589 220.953 192.974 216.651C192.271 211.776 189.693 207.979 186.583 206.661C183.964 209.031 182.448 213.495 182.953 218.328C183.104 219.771 183.427 221.135 183.885 222.37C178.958 218.964 173.635 216.172 167.979 214.109C166.953 210.854 164.162 207.927 160.375 206.594C159.292 206.208 158.198 205.984 157.135 205.906C154.109 205.682 151.307 206.646 149.443 208.505C150.057 212.172 152.859 215.672 156.922 217.323C158.162 217.828 159.422 218.12 160.641 218.208C162.99 218.385 165.208 217.823 166.943 216.651C171.495 218.302 178.073 221.313 182.141 223.88C176.24 222.443 170.479 225.083 168.625 228.078C172.448 233.135 182.526 235.458 189.099 229.745C194.849 234.932 200.589 242.026 204.651 248.917C203.87 248.385 202.667 247.547 201.755 247.172C200.401 246.615 199.026 246.297 197.698 246.198C194.729 245.974 191.969 246.854 190.042 248.604C191.391 254.13 198.859 260.167 208.589 256.932C211.542 263.755 214.068 271.953 215.224 279.651C215.083 279.422 214.938 279.193 214.787 278.969C212.182 275.052 208.51 272.771 205.083 272.521C204.5 272.474 203.927 272.49 203.365 272.568C201.755 276.563 202.297 282.052 205.125 286.698C207.667 290.88 211.427 293.344 214.974 293.609C215.396 293.641 215.818 293.641 216.229 293.609C216.219 295.776 216.135 297.969 215.969 300.172C215.646 304.557 215.016 308.854 214.104 313.031C213.953 312 213.724 310.953 213.412 309.911C211.693 304.234 207.901 300.276 203.917 299.406C201.193 302.833 200.172 308.521 201.651 314.188C203.13 319.849 206.688 323.932 210.594 325.063C208.51 330.708 205.891 336.057 202.802 341.021C203.698 337.75 203.964 329.615 197.797 324.234C188.771 331.302 188.443 344.771 194.865 351.771C191.74 355.359 188.323 358.641 184.667 361.552C187.807 355.927 188.63 344.786 183.396 340.323C170.88 344.375 169.74 361.021 175.266 367.938C170.26 370.792 164.932 373.026 159.365 374.542C160.505 372.792 161.406 370.682 161.938 368.328C163.203 362.724 162.037 357.307 159.287 354.276C155.542 355.464 152.104 359.469 150.651 364.922C149.563 369.031 149.823 373.109 151.12 376.234C150.833 376.25 150.115 376.266 148.547 376.151C147.792 376.094 147.135 376.661 147.078 377.417C147.021 378.172 147.589 378.828 148.344 378.885C149.693 378.984 150.693 379.01 151.333 378.969C155.755 388.255 164.016 391.964 173.115 389.146C172.443 380.573 165.906 377.422 160.568 377.057C166.339 375.438 171.854 373.078 177.031 370.083C183.922 378.089 194.047 379.792 201.99 374.495C201.422 368.422 195.755 362.568 186.089 363.922C189.807 360.979 193.505 357.24 196.703 353.625C208.115 357.286 216.427 353.849 220.339 346.693C213.912 341.458 208.276 341.568 204.677 343.156C208.115 337.828 210.906 332.036 213.203 325.917C225.589 326.068 232.734 314.542 230.662 307.703Z" fill="#F39C12"/>
<mask id="mask2_319_281" style="mask-type:luminance" maskUnits="userSpaceOnUse" x="0" y="0" width="148" height="164">
<path d="M0 0.416687H148V164H0V0.416687Z" fill="white"/>
</mask>
<g mask="url(#mask2_319_281)">
<path d="M146.844 163.828L68.9225 0.416687H0.380859L81.2038 163.828H146.844Z" fill="#41ABE5"/>
</g>
<mask id="mask3_319_281" style="mask-type:luminance" maskUnits="userSpaceOnUse" x="251" y="328" width="1" height="2">
<path d="M251.244 328.823H251.786V329.193H251.244V328.823Z" fill="white"/>
</mask>
<g mask="url(#mask3_319_281)">
<mask id="mask4_319_281" style="mask-type:luminance" maskUnits="userSpaceOnUse" x="251" y="328" width="1" height="2">
<path d="M251.754 329.047C250.759 329.443 251.556 328.844 251.556 328.844Z" fill="white"/>
</mask>
<g mask="url(#mask4_319_281)">
<mask id="mask5_319_281" style="mask-type:luminance" maskUnits="userSpaceOnUse" x="-28" y="-42" width="335" height="502">
<path d="M306.9 -41.8H-27.9004V459.8H306.9V-41.8Z" fill="black" fill-opacity="0.01"/>
</mask>
<g mask="url(#mask5_319_281)">
<mask id="mask6_319_281" style="mask-type:luminance" maskUnits="userSpaceOnUse" x="250" y="328" width="2" height="2">
<path d="M251.999 328H250.666V329.333H251.999V328Z" fill="white"/>
</mask>
<g mask="url(#mask6_319_281)">
<mask id="mask7_319_281" style="mask-type:luminance" maskUnits="userSpaceOnUse" x="251" y="328" width="1" height="2">
<path d="M251.244 328.839H251.786V329.193H251.244V328.839Z" fill="white"/>
</mask>
<g mask="url(#mask7_319_281)">
<mask id="mask8_319_281" style="mask-type:luminance" maskUnits="userSpaceOnUse" x="251" y="328" width="1" height="2">
<path d="M251.754 329.047C250.759 329.443 251.556 328.844 251.556 328.844Z" fill="white"/>
</mask>
<g mask="url(#mask8_319_281)">
<path d="M340.379 -91.96H-61.3809V509.96H340.379V-91.96Z" fill="#0571D3"/>
</g>
</g>
</g>
</g>
</g>
</g>
</g>
<defs>
<clipPath id="clip0_319_281">
<rect width="279" height="418" fill="white"/>
</clipPath>
</defs>
</svg>
